<svg width="116" height="319" viewBox="0 0 116 319" fill="none" xmlns="http://www.w3.org/2000/svg">
<g clip-path="url(#clip0_29332_9584)">
<path d="M18.6246 214.125C19.3725 213.913 20.0647 213.701 20.768 213.523C21.1029 213.445 21.3708 213.523 21.382 213.947C21.382 214.382 21.6053 214.46 22.0071 214.382C23.3133 214.125 24.6417 213.992 25.9367 213.679C26.3386 213.579 26.7517 213.567 26.7517 214.192C26.7517 214.416 26.9414 214.471 27.1312 214.46C27.4214 214.438 27.5331 214.27 27.5554 213.992C27.6336 213.244 27.8122 213.076 28.549 213.043C28.8727 213.032 29.1072 213.099 29.096 213.478C29.096 213.947 29.3416 214.003 29.7212 213.891C31.2617 213.467 32.8358 213.244 34.4098 213.099C36.2295 212.943 37.8706 212.095 39.6679 211.916C40.0251 211.882 40.3712 211.804 40.7284 211.749C41.1638 211.67 41.5099 211.682 41.5545 212.273C41.588 212.641 41.9453 212.686 42.202 212.552C43.4858 211.905 44.9259 211.905 46.2656 211.481C46.3884 211.447 46.6004 211.47 46.5223 211.258C46.4665 211.09 46.2991 211.124 46.1651 211.191C46.02 211.269 45.886 211.347 45.7185 211.325C45.5176 211.302 45.272 211.28 45.2385 211.057C45.205 210.822 45.4618 210.811 45.6181 210.778C46.1539 210.655 46.1874 210.387 45.9306 209.952C45.7074 209.573 45.5176 209.182 45.0375 209.048C44.792 208.981 44.7362 208.758 44.7027 208.524C44.658 208.133 44.6245 207.743 44.3566 207.397C44.1668 207.151 44.3566 206.95 44.5575 206.805C44.9482 206.537 44.8143 206.236 44.6245 205.924C44.4236 205.578 44.1445 205.511 43.8207 205.712C43.3742 206.002 43.1174 205.812 42.9165 205.422C42.7044 204.997 42.5034 204.562 42.2913 204.139C42.1908 203.938 42.2355 203.759 42.3694 203.581C42.5146 203.402 42.6262 203.213 42.4811 202.989C42.3359 202.755 42.1016 202.655 41.8671 202.755C40.8736 203.157 40.4828 202.722 40.1144 201.795C39.88 201.215 39.6567 200.847 40.1591 200.356C40.3265 200.189 40.3712 199.921 40.2261 199.686C40.0698 199.452 39.8353 199.564 39.6232 199.608C39.4446 199.642 39.2772 199.686 39.1097 199.742C38.8753 199.82 38.6855 199.776 38.6743 199.508C38.652 199.173 38.5069 198.961 38.2054 198.805C37.9934 198.693 37.9599 198.47 37.9264 198.247C37.7701 197.209 37.3124 196.283 36.9328 195.334C36.5421 194.341 36.2518 193.304 35.9169 192.288C35.8834 192.199 35.9169 192.076 35.8611 191.998C35.035 190.559 34.7894 188.907 34.2535 187.356C34.1642 187.077 34.1196 186.821 34.2201 186.542C34.421 185.973 34.1977 185.582 33.6731 185.325C33.5056 185.247 33.327 185.169 33.2935 184.98C33.0702 183.853 32.2888 182.971 31.9539 181.9C31.8422 181.543 31.552 181.275 31.4515 180.895C31.3064 180.371 31.0385 179.88 31.4068 179.311C31.6301 178.954 31.2729 178.686 31.0273 178.463C30.2682 177.771 30.2682 177.615 30.6701 176.656C30.9157 176.086 30.4803 175.562 30.19 175.138C29.8663 174.692 29.9221 174.457 30.2905 174.167C30.7259 173.821 30.5026 173.442 30.2905 173.107C30.0895 172.795 29.844 172.516 29.4197 172.828C29.2411 172.962 29.0848 172.895 28.9509 172.739C28.8057 172.549 28.9285 172.449 29.0848 172.371C29.2746 172.281 29.3193 172.114 29.3416 171.935C29.3639 171.779 29.3639 171.556 29.4644 171.489C30.5361 170.719 29.4756 170.105 29.2969 169.458C29.1853 169.068 28.962 168.8 29.4197 168.521C29.7323 168.32 29.6542 168.041 29.5537 167.728C29.4197 167.316 29.1741 166.858 29.8998 166.668C30.2793 166.568 30.1565 166.244 29.9779 165.988C29.8105 165.742 29.643 165.497 29.3193 165.787C29.0737 166.01 28.895 166.267 28.5602 165.865C27.9462 165.117 27.8792 164.928 28.2922 164.515C28.4709 164.336 28.6606 164.191 28.4932 163.912C28.3146 163.633 28.1024 163.701 27.8903 163.868C27.6782 164.024 27.5331 163.901 27.3656 163.779C26.841 163.366 26.6289 162.752 26.2939 162.217C26.2381 162.127 26.2158 161.971 26.2939 161.949C26.8633 161.77 26.841 161 27.4438 160.822C27.7787 160.721 27.8903 160.364 27.6559 160.096C27.2986 159.695 27.4103 159.103 27.0084 158.713C26.841 158.545 27.0531 158.389 27.1871 158.277C27.4661 158.043 27.5108 157.775 27.3321 157.485C27.0531 157.05 26.7517 156.637 26.4391 156.213C26.2493 155.956 26.0037 155.845 25.7581 156.157C25.4232 156.581 25.2111 156.28 25.0101 156.035C24.7645 155.744 24.452 155.365 24.932 155.086C25.4232 154.807 25.4009 154.562 25.1329 154.149C24.8873 153.769 24.8092 153.301 24.4855 152.955C24.251 152.709 24.4743 152.542 24.6975 152.397C25.2446 152.029 25.3674 151.627 24.8427 151.27C23.9496 150.667 23.8603 149.641 23.3133 148.871C22.9002 148.302 23.2128 147.041 23.8045 146.617C24.1171 146.394 24.1394 146.193 24.0166 145.858C23.7263 145.077 23.3133 144.396 22.7216 143.816C22.3197 143.437 22.2527 142.868 21.9178 142.432C21.7392 142.198 21.9736 141.986 22.2081 141.886C22.6211 141.696 22.7216 141.439 22.4425 141.049C22.1076 140.58 22.0741 140.167 22.5988 139.765C22.9114 139.52 23.0119 139.051 23.3914 138.828C23.4919 138.772 23.503 138.616 23.3914 138.516C23.2463 138.382 23.1235 138.471 23.0454 138.594C22.6993 139.163 22.4872 138.85 22.2304 138.493C21.7839 137.857 21.6834 137.835 21.0247 138.226C20.7791 138.371 20.6005 138.315 20.4665 138.103C20.2768 137.79 19.8637 137.5 20.221 137.054C20.5 136.708 20.8461 136.451 21.2257 136.217C21.3932 136.117 21.7169 136.05 21.5718 135.771C21.4601 135.537 21.2257 135.704 21.0359 135.76C20.9354 135.782 20.8461 135.816 20.7456 135.704C20.7568 135.66 20.768 135.581 20.7903 135.57C21.3262 135.369 21.449 134.945 21.3038 134.466C21.1475 133.952 20.6787 133.841 20.221 133.763C20.0982 133.74 19.9865 133.796 19.9084 133.896C19.7968 134.053 19.6851 134.22 19.4953 134.008C19.3614 133.852 19.2832 133.651 19.4395 133.461C19.8972 132.926 20.2322 132.267 20.9801 132.044C21.1252 131.999 21.2592 131.899 21.3932 131.81C21.6499 131.631 22.0071 131.441 21.6723 131.073C21.4266 130.794 21.2369 130.247 20.701 130.727C20.4665 130.939 20.2656 130.817 20.087 130.627C19.8302 130.348 19.5735 130.069 19.2944 129.823C18.9149 129.489 18.9707 129.187 19.2944 128.864C19.8972 128.284 19.9084 128.105 19.406 127.435C19.2721 127.257 19.0934 127.112 18.993 126.933C18.7697 126.543 18.5576 126.141 19.1716 125.851C19.473 125.717 19.4395 125.427 19.3055 125.181C19.0934 124.78 18.8925 124.356 18.6134 124.01C18.3455 123.664 18.379 123.441 18.7251 123.229C19.2162 122.927 19.3614 122.526 19.0153 122.035C18.8479 121.801 18.9037 121.667 19.1269 121.511C19.607 121.187 19.4395 120.785 19.1716 120.428C18.926 120.105 18.6134 119.87 18.2227 120.239C17.9324 120.506 17.765 120.339 17.5976 120.116C17.4189 119.881 17.2403 119.636 17.5864 119.413C18.0887 119.1 18.1557 118.743 17.7985 118.275C17.5529 117.951 17.7873 117.75 18.0217 117.605C18.4348 117.337 18.4571 117.036 18.178 116.668C17.8766 116.266 17.7538 115.887 18.379 115.641C18.6358 115.541 18.5353 115.317 18.4348 115.139C17.6199 113.644 16.8272 112.137 15.8672 110.731C15.6551 110.43 15.7444 110.285 15.9788 110.095C16.2133 109.905 16.3807 109.85 16.6151 110.14C16.9835 110.62 17.7873 110.508 18.0552 109.972C18.178 109.727 18.0217 109.56 17.8654 109.392C17.5529 109.057 17.5529 108.801 17.9994 108.545C18.5464 108.232 18.5576 107.987 18.1334 107.507C17.9771 107.328 17.7873 107.183 17.6199 107.016C17.1175 106.525 17.084 106.29 17.6199 105.855C18.0217 105.521 18.0552 105.242 17.7426 104.851C17.4524 104.494 17.4971 104.17 17.8543 103.869C18.178 103.601 18.2227 103.278 17.8989 103.01C17.1957 102.43 17.1733 101.503 16.7714 100.778C16.6598 100.577 16.7938 100.387 16.9835 100.276C17.2738 100.12 17.5641 100.142 17.7873 100.41C17.9436 100.588 18.0664 100.834 18.3678 100.689C18.7362 100.51 19.0042 100.287 18.7921 99.8073C18.5464 99.2269 18.2673 99.0149 17.832 99.2159C17.6199 99.3164 17.4524 99.3274 17.3073 99.1269C17.1622 98.9259 17.3073 98.7809 17.4524 98.6694C17.8431 98.3454 17.7985 97.9884 17.5417 97.6204C17.3073 97.2744 17.0505 96.9509 16.7938 96.616C16.537 96.2815 16.5816 96.0135 16.9166 95.7455C17.2515 95.489 17.5082 95.5335 17.7761 95.857C18.3678 96.5715 18.4125 96.5715 19.1046 95.9465C19.3725 95.712 19.5623 95.3995 19.9196 95.266C20.1428 95.1875 20.1317 94.998 20.0424 94.8195C19.9865 94.719 19.9307 94.6075 19.8526 94.518C18.8367 93.3131 18.3008 91.7956 17.3743 90.5347C17.0505 90.0882 16.7268 89.6532 16.4812 89.1512C16.3361 88.8497 16.3472 88.6712 16.6375 88.5263C16.7268 88.4818 16.8049 88.4258 16.8831 88.3698C18.1334 87.3993 18.1892 87.0868 17.3743 85.7364C17.2626 85.5469 17.0059 85.3574 17.3073 85.1339C17.6087 84.9109 17.765 85.0559 17.9548 85.3459C18.245 85.7589 18.5911 85.5804 18.9372 85.3459C19.2497 85.1229 19.54 84.9444 19.2497 84.4979C19.0488 84.1744 18.8144 83.8954 18.5018 83.6609C17.9771 83.2594 18.0106 82.8465 18.5688 82.4785C18.8032 82.322 19.0377 82.188 19.1827 81.9315C19.3055 81.7195 19.5846 81.5075 19.0711 81.418C18.8702 81.3845 18.8144 81.1725 18.9818 81.061C19.4283 80.771 19.5288 80.1351 20.1428 79.9901C20.4889 79.9121 20.4219 79.6216 20.2768 79.3651C20.0535 78.9636 19.8191 78.5726 19.607 78.1711C19.4283 77.8251 19.2609 77.4457 19.9196 77.4792C20.1652 77.4792 20.154 77.3232 20.154 77.1667C20.154 76.8212 19.9531 76.5867 19.7409 76.3412C19.4618 76.0062 19.2721 75.6492 19.8637 75.4037C20.0089 75.3482 20.1875 75.2252 20.0535 75.0467C19.9307 74.8792 19.8079 75.0467 19.7074 75.1362C19.5735 75.2477 19.4172 75.4262 19.2609 75.2027C19.1269 75.0133 19.3055 74.8908 19.4283 74.7568C19.7856 74.3883 20.1317 74.0093 20.4777 73.6298C20.6117 73.4848 20.6452 73.3173 20.5447 73.1388C20.3215 72.7483 20.154 72.3018 19.7856 72.0004C19.406 71.6994 19.4842 71.4089 19.8191 71.1859C20.5335 70.7284 21.1141 70.0924 21.9066 69.7354C22.476 69.4789 22.5542 69.222 22.1634 68.709C21.6834 68.095 21.3373 67.403 20.9019 66.767C20.634 66.3766 20.5894 66.0866 21.0806 65.8746C21.5606 65.6736 21.5495 65.2941 21.315 64.9371C21.0471 64.5466 21.1252 64.2786 21.5048 64.0556C21.9178 63.8102 22.0183 63.5312 21.6499 63.1517C21.3932 62.8952 21.4936 62.6722 21.7727 62.4602C22.1411 62.1922 22.476 61.8797 22.8333 61.5897C23.1012 61.3667 23.2016 61.1098 22.9672 60.8198C22.6881 60.4738 22.8221 60.2173 23.1347 60.0388C23.6817 59.7263 23.6593 59.3803 23.2909 58.9338C23.023 58.6213 22.8221 58.2424 22.5765 57.9074C22.3867 57.6394 22.3979 57.4054 22.6993 57.2714C23.2016 57.0484 23.4361 56.5124 23.9384 56.2669C24.2622 56.1109 24.1617 55.7875 23.9831 55.542C23.6705 55.1515 23.7263 54.861 24.1729 54.638C24.5524 54.4485 24.5747 54.2365 24.3292 53.879C23.8715 53.243 24.0054 52.8971 24.7422 52.6406C24.8538 52.6071 24.9766 52.5961 25.0883 52.5626C25.9144 52.3171 26.0372 52.0271 25.6018 51.2791C25.3897 50.9221 25.3339 50.4871 25.0436 50.1635C24.9097 50.0184 24.9878 49.8511 25.1218 49.7506C25.4567 49.5051 25.7358 49.1927 26.1153 48.9919C26.4614 48.8133 26.7628 48.579 27.0196 49.1257C27.1201 49.3601 27.388 49.3043 27.6112 49.2262C28.2141 48.9919 28.6494 48.512 29.1853 48.1661C29.5091 47.9653 29.2076 47.664 29.0513 47.452C28.895 47.24 28.7276 46.9275 28.3927 47.1954C28.1024 47.4185 27.868 47.4074 27.6001 47.1619C27.3433 46.9275 27.2764 46.6932 27.5889 46.4812C28.0578 46.1576 28.1806 45.8117 27.801 45.343C27.6112 45.1087 27.7229 44.9191 27.935 44.7963C28.2922 44.6066 28.5602 44.3165 28.8727 44.071C29.23 43.7809 29.6207 43.6469 29.8775 44.2272C30.056 44.6178 30.3351 44.4839 30.5473 44.283C30.8598 44.004 31.1613 43.7474 31.5743 43.5912C31.9315 43.4461 31.965 43.1449 31.7752 42.7989C31.3957 42.1071 31.0496 41.393 30.6812 40.69C30.5138 40.3776 30.3686 40.0763 30.7705 39.8085C31.1389 39.563 31.351 39.6969 31.6078 40.0316C31.965 40.5003 32.2888 40.0316 32.579 39.8866C32.9251 39.7304 32.7465 39.4737 32.6125 39.2394C32.3223 38.7484 31.8311 38.2686 31.8646 37.7219C31.9092 37.1193 32.6795 37.0635 33.0814 36.7065C33.4275 36.4052 33.807 36.1485 34.1866 35.903C34.5661 35.6575 34.622 35.3898 34.3875 34.9992C34.2089 34.7091 33.9745 34.4747 33.7177 34.2516C33.2935 33.8945 33.2823 33.5598 33.7624 33.3143C34.6554 32.8568 35.3364 32.1203 36.196 31.6293C36.5644 31.4173 36.6984 30.9264 37.0668 30.6697C37.2231 30.5581 37.0668 30.3796 36.9663 30.2569C36.6091 29.8775 36.7765 29.6097 37.1672 29.42C37.4575 29.2749 37.6585 29.0518 37.8594 28.7951C38.1273 28.4492 38.5292 28.2818 38.9757 28.1814C39.7348 28.0029 40.1033 27.2887 40.7061 26.8759C40.8959 26.742 40.6726 26.5188 40.5721 26.3514C40.3265 25.9609 40.3265 25.6596 40.8178 25.4588C41.3201 25.2579 41.2643 24.912 40.9628 24.5661C40.6615 24.2313 40.6726 23.9747 41.108 23.785C41.4652 23.6288 41.5992 23.3275 41.4429 23.0039C41.1526 22.379 41.4094 22.0777 41.9788 21.888C42.1574 21.8211 42.3248 21.6984 42.5704 21.5645C42.2579 22.4348 43.017 22.8031 43.3184 23.3721C43.4189 23.5506 43.5975 23.4502 43.7202 23.3275C43.91 23.1378 44.2003 22.9593 43.9547 22.6357C43.6867 22.2786 43.5639 21.8546 43.3407 21.4864C43.2067 21.2632 43.1844 21.04 43.3742 20.8949C44.0886 20.337 44.4682 19.3997 45.4841 19.1542C45.9195 19.0426 46.2767 18.5852 46.6674 18.2727C46.8237 18.15 46.846 17.9938 46.7679 17.7929C46.5111 17.1011 46.6897 16.6436 47.4042 16.5432C48.2973 16.4204 48.6322 15.5835 49.3467 15.2488C49.6146 15.126 49.6146 14.7355 49.4137 14.4566C49.2909 14.278 49.2015 14.0883 49.4137 13.9209C49.9942 13.4523 50.3402 12.7939 51.0211 12.3811C51.6241 12.0129 52.3721 12.024 52.8856 11.5107C53.0086 11.3991 53.1421 11.533 53.2206 11.6558C53.7005 12.3699 54.5045 12.8274 54.694 13.7759C54.7835 14.2334 55.241 14.3115 55.6655 14.0883C56.1339 13.854 56.3349 13.4077 56.1004 13.0394C55.9329 12.7605 55.9445 12.5596 56.1789 12.3699C56.4134 12.1691 56.4689 11.9236 56.2679 11.6893C55.8774 11.2541 55.7545 10.6515 55.3415 10.2387C55.0735 9.97088 55.1405 9.79234 55.442 9.5803C55.7995 9.32366 56.1899 9.07816 55.71 8.49794C55.4085 8.1297 55.8994 7.88426 56.1899 7.70571C56.6139 7.43792 56.7929 7.83961 56.9939 8.0851C57.2284 8.37519 57.0719 8.59838 56.7929 8.76578C56.5584 8.91082 56.1564 8.98892 56.4244 9.4018C56.5804 9.64729 56.6139 10.1048 57.0494 9.99318C57.4624 9.88159 57.9539 9.52455 57.7864 9.12281C57.3954 8.1632 58.2219 7.89541 58.6348 7.46022C59.1928 6.87999 59.2488 6.89114 58.7908 6.26627C58.5679 5.96498 58.4114 5.61909 58.2104 5.29548C58.0654 5.06116 58.1769 4.9161 58.3669 4.80452C58.8803 4.52555 59.0478 4.16848 58.6793 3.64404C58.5009 3.39855 58.6013 3.1977 58.8133 3.03033C59.0368 2.86295 59.2153 2.9299 59.3828 3.13075C59.6173 3.42087 59.8963 3.37624 60.1863 3.20886C60.9793 2.76252 61.7827 2.32735 62.5642 1.84753C62.8992 1.63552 63.1337 1.62436 63.3682 1.97027C63.6472 2.37198 63.9597 2.59515 64.4621 2.24923C64.6966 2.08186 64.9646 2.14881 65.1321 2.41661C65.2881 2.67325 65.2436 2.94106 64.9981 3.10843C64.5516 3.42087 64.6071 3.7333 64.9086 4.10153C65.1876 4.4586 65.2101 4.79336 64.7526 5.03884C64.3951 5.22854 64.3391 5.49635 64.5851 5.81993C64.8641 6.18817 64.8081 6.46711 64.3506 6.6568C63.8592 6.85765 63.7812 7.20358 64.0267 7.67222C64.1381 7.89541 64.3951 8.1409 63.9932 8.37519C63.6362 8.57608 63.3237 8.53143 63.1562 8.1632C62.9437 7.69456 62.4527 7.61642 62.1067 7.32633C61.8722 7.11429 61.6487 7.41558 61.6822 7.60527C61.7827 8.11855 61.5037 8.70998 62.0397 9.14516C62.2852 9.346 62.1847 9.56915 61.9167 9.76999C61.2808 10.2164 61.2693 10.54 61.7942 11.1202C61.9502 11.2987 62.0952 11.4884 62.2407 11.6781C62.5422 12.0687 62.7317 12.4034 62.1067 12.7158C61.7607 12.8944 61.7827 13.2626 62.0062 13.5416C62.3077 13.9321 62.0507 14.1218 61.7942 14.3115C61.5037 14.5347 61.2918 14.4119 61.1018 14.1441C60.8228 13.7312 60.3873 13.4635 60.1308 13.0171C59.9743 12.7493 59.6953 12.7493 59.4718 12.9725C59.2598 13.1845 58.8803 13.3742 59.1928 13.7424C59.5723 14.1776 59.4943 14.4454 58.9918 14.702C58.6239 14.8917 58.5788 15.2153 58.8693 15.5389C59.0703 15.7621 59.2713 16.0187 58.9363 16.2308C58.6348 16.4316 58.2664 16.7998 57.8979 16.3311C57.4179 15.7063 57.0944 16.2642 56.7594 16.465C56.3239 16.7329 56.6364 16.9783 56.8374 17.235C57.0384 17.4805 57.1949 17.7594 57.3619 18.0272C57.4514 18.1723 57.4739 18.362 57.3399 18.4736C56.8819 18.8195 56.6029 19.3439 56.1004 19.6675C55.6655 19.9353 55.2855 19.6452 54.895 19.6006C54.2585 19.5336 53.879 19.8461 53.477 20.192C53.276 20.3705 53.2985 20.5713 53.455 20.7722C53.5775 20.9284 53.7005 21.0846 53.801 21.252C54.3145 22.1001 54.3255 22.1112 53.589 22.8031C53.321 23.0486 53.3765 23.294 53.533 23.5506C53.7005 23.8185 53.7675 24.0528 53.4995 24.2871C53.2315 24.5103 52.9416 24.5326 52.6956 24.2871C52.3161 23.8854 51.9591 24.0751 51.6466 24.3318C51.3786 24.5661 51.3116 24.8562 51.6801 25.124C51.8026 25.2133 51.7021 25.336 51.6131 25.4141C50.7421 26.251 49.8156 27.0098 48.7215 27.5565C48.0517 27.8913 47.5829 28.4827 46.9912 28.9178C46.913 28.9736 46.8572 29.0741 46.7679 29.1075C46.1651 29.3977 45.7074 29.7213 46.3214 30.4354C46.4553 30.5916 46.3214 30.7925 46.1539 30.8817C45.7297 31.1049 45.4283 31.5066 44.9818 31.6851C44.6245 31.8302 44.5575 32.098 44.7138 32.4105C44.9259 32.8568 45.1603 33.292 45.3948 33.7272C45.5064 33.928 45.752 34.1623 45.3948 34.3074C45.1268 34.419 44.792 34.7426 44.5129 34.2962C44.3566 34.0507 44.3008 33.6267 43.843 33.9726C43.4858 34.2516 42.95 34.4413 43.363 35.0773C43.5975 35.4455 43.7314 35.8695 44.0217 36.2043C44.2226 36.4386 44.1891 36.6283 43.9323 36.7957C42.883 37.4652 41.9899 38.3579 40.8624 38.927C40.2037 39.2617 40.1814 39.3956 40.5275 40.0874C40.6615 40.3552 40.5275 40.5003 40.36 40.6454C40.1591 40.8016 39.9805 40.9912 39.8018 41.1698C39.4 41.5603 39.0204 41.8951 39.4223 42.52C39.5562 42.7208 39.4 42.9886 39.1879 43.1449C38.7971 43.4127 38.4176 43.7027 37.9934 43.9148C37.625 44.1045 37.5803 44.3165 37.7924 44.6178C38.1273 45.0975 38.518 45.5774 37.625 45.901C37.5022 45.9456 37.4687 46.1018 37.5245 46.2134C37.7254 46.6709 37.6696 47.2065 37.9264 47.6417C38.0938 47.9095 38.0938 48.1327 37.8147 48.3C37.3124 48.5902 37.3905 48.9807 37.6585 49.3601C37.8706 49.6502 37.8371 49.8064 37.5468 50.0408C36.9216 50.5316 36.3077 51.0336 35.649 51.4801C35.2695 51.7481 34.9792 51.7926 34.7336 51.3241C34.421 50.7101 34.075 51.1566 33.7624 51.3241C33.394 51.5361 33.3828 51.8261 33.6842 52.1051C34.0861 52.4621 34.008 52.7076 33.5614 52.9531C33.1707 53.165 33.1484 53.433 33.4386 53.7675C34.0526 54.4595 34.3317 55.352 34.8006 56.1334C34.8787 56.2559 34.9234 56.4459 34.8006 56.5124C34.2982 56.7579 34.1196 57.3384 33.6172 57.5729C33.3716 57.6844 33.1149 57.8404 33.2377 58.1529C33.3605 58.4544 33.6172 58.6663 33.9968 58.5993C34.0972 58.5878 34.1866 58.5324 34.2759 58.4989C34.5773 58.3984 34.7894 58.5434 34.9234 58.7888C35.0685 59.0343 34.9345 59.2463 34.7448 59.4138C34.7113 59.4363 34.6889 59.4698 34.6554 59.4918C33.4051 60.0163 32.6907 61.2327 31.552 61.8912C31.3398 62.0137 31.3287 62.1922 31.4515 62.4042C31.6971 62.8062 31.9204 63.2302 32.1883 63.6207C32.4116 63.9441 32.3446 64.1561 32.0208 64.3456C31.6413 64.5691 31.2952 64.8256 30.9157 65.0486C30.5473 65.2606 30.5361 65.5176 30.7482 65.8411C31.0161 66.2541 31.2729 66.6891 31.5631 67.091C31.7641 67.381 31.7864 67.6375 31.485 67.8605C31.1166 68.1285 31.1055 68.4075 31.3733 68.7645C31.7529 69.278 31.418 69.8914 31.5408 70.4494C31.5743 70.5944 31.351 70.6729 31.1836 70.5389C30.9938 70.3939 30.9938 69.9699 30.6589 70.0589C30.2347 70.1594 29.8551 70.3939 29.5425 70.7174C29.5202 70.7509 29.4979 70.7844 29.4756 70.8064C29.0737 71.2419 28.9844 71.5879 29.1518 72.1788C29.23 72.4693 29.0737 72.6253 28.8727 72.7703C28.5044 73.0383 28.1471 73.3283 27.7899 73.6073C27.5554 73.7858 27.4549 74.0088 27.6559 74.2768C27.8457 74.5333 28.069 74.4778 28.2699 74.2768C28.5602 74.0088 28.9509 73.9643 29.2969 73.8193C29.6988 73.6408 30.0337 73.7303 30.2458 74.1428C30.4468 74.5113 30.4133 74.7568 29.9667 74.9242C29.7323 75.0132 29.8663 75.2362 29.9667 75.3702C30.391 75.8837 30.19 76.1737 29.6988 76.5087C28.962 76.9997 28.3034 77.6021 27.6001 78.1486C27.2875 78.3941 27.4438 78.6396 27.6336 78.8631C27.8568 79.1196 28.1024 79.4431 28.4597 79.0971C28.7722 78.7961 29.1406 78.6286 29.4979 78.4056C29.777 78.2271 29.9891 78.2936 30.1454 78.5506C30.3016 78.7961 30.2458 79.0301 29.9891 79.1641C29.3863 79.4766 29.4867 79.8226 29.8998 80.2241C30.2347 80.548 30.3016 80.849 29.777 81.0945C29.3528 81.2955 29.3304 81.608 29.6207 81.965C29.9333 82.3445 29.9333 82.6905 29.4756 82.947C29.1853 83.1144 29.1853 83.3039 29.3304 83.5939C29.576 84.0739 29.5091 84.4644 28.9955 84.7994C28.5825 85.0669 27.8457 85.2454 27.868 85.7589C27.9015 86.3948 28.2699 87.0308 28.7499 87.5333C28.9397 87.7338 29.1853 87.9123 29.2969 88.1578C29.4867 88.5482 29.6542 88.9947 29.0625 89.2512C28.8169 89.3632 28.7946 89.5527 28.9844 89.7202C29.5202 90.1887 29.1295 90.9142 29.4867 91.4386C29.5537 91.5391 29.3751 91.6726 29.2635 91.7621C29.0737 91.9296 28.8727 92.0966 28.6829 92.2756C27.935 92.9896 27.868 93.0451 28.549 93.8151C29.1072 94.451 29.1295 95.21 29.3304 95.969C29.0625 96.069 28.9955 95.824 28.8615 95.712C28.7834 95.645 28.6941 95.5895 28.6048 95.6785C28.5155 95.757 28.5267 95.8905 28.6048 95.9465C29.1072 96.326 28.8727 97.0064 29.2411 97.4529C29.4309 97.6759 29.2858 97.9439 28.9955 98.0664C28.5267 98.2784 28.5155 98.6244 28.7834 98.9929C29.029 99.3389 28.9509 99.5508 28.6048 99.7628C28.1583 100.019 28.0355 100.622 27.5219 100.834C27.4438 100.867 27.4326 101.024 27.4884 101.102C27.9796 101.671 27.9685 102.541 28.6383 103.01C28.8057 103.133 28.9285 103.333 29.0402 103.523C29.2411 103.836 29.2411 104.137 28.8839 104.338C28.5713 104.516 28.3592 104.751 28.5602 105.108C28.7499 105.431 29.029 105.677 29.4421 105.498C29.7212 105.375 29.9445 105.42 30.123 105.666C30.2682 105.878 30.2682 106.056 30.056 106.235C29.4532 106.759 28.8615 107.306 28.2476 107.83C27.9685 108.065 27.8345 108.277 28.0801 108.634C28.3704 109.058 27.9685 109.269 27.7229 109.437C27.2428 109.738 27.2317 110.051 27.5666 110.452C27.801 110.72 28.0131 111.01 28.2476 111.278C28.6048 111.713 28.5825 112.037 28.1694 112.405C27.9796 112.584 27.7229 112.729 27.9238 113.041C28.1248 113.365 28.415 113.443 28.7499 113.253C29.1853 112.996 29.3974 113.197 29.6654 113.543C30.4356 114.514 30.7929 115.708 31.4961 116.712C31.7529 117.081 31.5966 117.337 31.2952 117.572C30.9603 117.828 30.8487 117.527 30.6924 117.337C30.4356 117.025 30.1342 116.958 29.8105 117.203C29.5872 117.371 29.3416 117.572 29.5425 117.895C29.7435 118.23 30.0449 118.33 30.4133 118.141C30.8822 117.906 31.1501 118.185 31.3957 118.542C31.6524 118.922 31.4292 119.156 31.1724 119.402C30.871 119.692 30.4021 119.971 30.9827 120.439C31.1055 120.54 31.0496 120.73 30.9045 120.785C30.6254 120.897 30.324 121.221 30.0337 120.964C29.6654 120.64 29.4086 120.696 29.1406 121.02C28.8392 121.377 29.0625 121.633 29.3193 121.89C29.4421 122.013 29.5649 122.158 29.643 122.314C29.8216 122.671 30.0225 122.86 30.4245 122.571C30.7259 122.359 30.9826 122.537 31.1389 122.771C31.4068 123.195 31.6189 123.641 31.8422 124.088C31.965 124.333 31.8199 124.512 31.6301 124.646C31.4626 124.769 31.3064 124.757 31.1501 124.623C30.9827 124.478 30.871 124.155 30.5919 124.266C30.2123 124.423 29.7993 124.545 29.5537 124.925C29.4421 125.103 29.3081 125.293 29.1741 125.46C29.0402 125.628 28.8169 125.773 29.0178 126.018C29.1853 126.219 29.4421 126.297 29.6542 126.13C30.1454 125.739 30.2905 126.13 30.5026 126.453C30.7482 126.799 30.8152 127.101 30.4021 127.369C30.3016 127.435 30.2235 127.525 30.1342 127.603C29.2411 128.44 29.1965 128.786 29.9779 129.712C30.324 130.125 30.4021 130.649 30.7036 131.073C30.8822 131.319 31.0385 131.52 31.3733 131.363C31.552 131.285 31.8087 131.196 31.8534 131.486C31.898 131.776 31.6301 131.866 31.4068 131.821C30.6031 131.687 30.1565 132.301 29.5984 132.68C29.3974 132.814 29.23 133.026 29.4197 133.294C29.5984 133.562 29.8663 133.562 30.1007 133.383C30.6142 132.981 30.9045 133.182 31.1389 133.707C31.3176 134.108 31.5855 134.466 31.7306 134.878C31.965 135.548 31.3287 135.883 31.0496 136.351C30.9938 136.44 30.8598 136.496 30.7705 136.563C30.6924 136.619 30.6031 136.697 30.6366 136.808C30.6701 136.942 30.7817 136.92 30.8822 136.92C31.2729 136.931 31.6636 136.998 32.0208 136.719C32.3669 136.452 32.646 136.608 32.8693 136.931C33.26 137.489 33.327 138.103 33.2377 138.75C33.0814 139.821 33.3605 140.77 34.1196 141.562C34.2982 141.741 34.3763 141.964 34.4545 142.187C34.5661 142.533 34.3317 142.734 34.075 142.834C33.7847 142.957 33.7066 142.667 33.6396 142.477C33.5391 142.198 33.4944 141.897 33.4051 141.618C33.2712 141.216 33.0256 140.926 32.5567 141.116C32.1771 141.272 31.6971 141.45 31.8757 141.986C32.0097 142.377 32.2888 142.745 32.8358 142.499C33.1372 142.365 33.2712 142.566 33.394 142.79C33.7177 143.392 34.075 143.939 34.7336 144.251C35.0462 144.396 35.1355 144.787 35.2918 145.077C35.9839 146.349 36.7431 147.566 36.8546 149.083C36.9328 150.154 37.3235 151.203 37.4128 152.274C37.5022 153.356 38.0157 154.26 38.3171 155.253C38.4622 155.711 38.5404 156.18 38.4176 156.659C38.2947 157.173 38.4399 157.574 38.7525 158.032C39.2883 158.791 39.5116 159.695 39.3888 160.632C39.3107 161.223 39.4223 161.647 39.9693 161.926C40.2707 162.083 40.36 162.35 40.3935 162.663C40.427 162.964 40.4828 163.265 40.7061 163.488C41.1973 163.979 41.6103 164.459 41.6438 165.262C41.655 165.686 42.1016 166.122 42.4029 166.512C42.9723 167.282 43.363 168.153 43.8207 168.989C43.977 169.28 43.843 169.447 43.6645 169.603C43.3295 169.893 43.4077 170.195 43.6198 170.507C43.8095 170.786 43.977 171.087 44.4236 170.864C44.7473 170.697 45.0041 170.864 45.1827 171.143C45.4059 171.489 45.0041 171.5 44.8813 171.668C44.6134 172.013 44.3008 172.304 43.91 172.538C43.5751 172.739 43.6644 173.062 43.8654 173.308C44.0998 173.598 44.3789 173.944 44.8031 173.632C45.1045 173.408 45.2943 173.263 45.5399 173.71C45.7744 174.156 45.6962 174.312 45.2385 174.558C44.6022 174.892 44.0328 175.383 43.4635 175.841C43.1174 176.131 43.1732 176.566 43.4189 176.868C43.6756 177.169 43.9547 176.968 44.1556 176.711C44.2896 176.544 44.4347 176.566 44.5464 176.711C44.9259 177.269 45.4283 177.737 45.6627 178.396C45.752 178.641 45.752 178.831 45.5064 178.954C45.1157 179.132 44.8701 179.478 44.5352 179.735C44.178 180.014 44.0105 180.282 44.3677 180.672C44.6915 181.018 45.1157 181.04 45.4618 180.672C45.6627 180.449 45.8413 180.215 46.1093 180.07C46.6339 179.78 46.8907 179.846 47.1698 180.371C47.3484 180.706 47.4712 181.074 47.6945 181.375C47.9624 181.732 47.7726 181.922 47.5382 182.123C47.2703 182.346 47.0135 182.279 46.8237 182.022C46.6451 181.777 46.4888 181.498 46.1204 181.621C45.8637 181.699 45.6404 181.844 45.5846 182.123C45.5176 182.446 45.6739 182.703 45.8972 182.926C46.1316 183.161 46.3214 182.982 46.5335 182.871C46.913 182.659 47.2368 182.759 47.4712 183.094C47.7503 183.507 48.0517 183.574 48.3643 183.161C48.6546 182.792 48.7774 182.982 48.9671 183.272C49.2797 183.763 49.2909 184.109 48.688 184.377C48.3643 184.522 48.1522 184.544 47.9959 184.221C47.8061 183.819 47.5829 183.774 47.2703 184.076C46.8907 184.433 46.6674 184.076 46.5111 183.852C46.1316 183.328 45.752 183.44 45.3166 183.741C45.1045 183.886 45.0822 184.042 45.205 184.243C45.7185 185.047 46.2432 185.839 46.7567 186.642C46.98 186.988 47.2479 187.01 47.5494 186.765C47.8842 186.508 48.208 186.252 48.5429 186.006C49.0118 185.649 49.2574 185.671 49.5476 186.185C49.7597 186.553 49.983 186.687 50.3627 186.475C50.7531 186.263 50.9541 186.519 51.1441 186.787C51.3001 187.01 51.1886 187.2 51.0101 187.356C50.7421 187.591 50.4966 187.513 50.2732 187.289C50.0277 187.033 49.7821 186.899 49.4471 187.156C49.1122 187.423 49.1123 187.658 49.3467 188.015C49.57 188.35 49.3578 188.684 49.0787 188.885C48.7439 189.131 48.7215 189.365 48.9337 189.689C49.1346 189.99 49.3132 190.291 49.4806 190.604C49.7374 191.083 50.0723 191.072 50.4516 190.76C50.6306 190.604 50.7981 190.436 50.9656 190.258C51.3671 189.834 51.6466 189.811 52.0036 190.258C52.3831 190.715 52.7071 191.217 53.0306 191.708C53.187 191.931 53.1311 192.11 52.8411 192.199C52.3496 192.344 52.3611 192.712 52.5951 193.047C52.8521 193.415 52.7961 193.661 52.4281 193.873C52.1486 194.04 52.0931 194.274 52.2046 194.587C52.5396 195.602 53.2315 196.361 53.879 197.164C54.08 197.41 54.348 197.332 54.571 197.153C54.817 196.952 55.0065 197.019 55.185 197.243C55.52 197.667 55.844 198.091 56.1674 198.515C56.3909 198.805 56.3684 199.05 56.0224 199.251C55.643 199.474 55.587 199.787 55.8439 200.155C56.1229 200.557 56.1119 201.104 56.5359 201.438C56.7144 201.583 56.5359 201.851 56.4804 202.052C56.3349 202.543 56.4804 202.71 56.9939 202.621C57.2729 202.577 57.4624 202.666 57.6079 202.867C58.2774 203.782 58.8803 204.741 59.4383 205.723C59.5838 205.979 59.6058 206.191 59.2043 206.191C59.0143 206.191 58.8358 206.247 58.7908 206.459C58.7463 206.682 58.9028 206.828 59.0703 206.95C59.2933 207.129 59.5503 207.107 59.8068 207.04C60.4878 206.872 61.1468 207.017 61.7942 207.229C61.9282 207.274 62.0507 207.33 62.1957 207.296C63.6582 206.917 65.1991 206.984 66.6501 206.549C67.041 206.437 67.4765 206.537 67.867 206.337C68.0235 206.258 68.191 206.337 68.2355 206.526C68.3135 206.872 68.5815 206.917 68.8385 206.85C69.285 206.727 69.7424 206.727 70.2004 206.716C70.6689 206.716 70.9259 206.47 71.0154 206.013C71.1604 205.321 72.2544 204.663 72.9243 204.83C73.1808 204.897 73.2033 205.087 73.2143 205.288C73.2253 205.678 73.4488 205.756 73.7723 205.689C74.0853 205.634 74.3978 205.578 74.7103 205.533C75.6257 205.399 75.6367 205.41 75.6367 204.484C75.6367 204.239 75.7152 204.083 75.9492 204.083C76.8647 204.083 77.7356 203.782 78.6286 203.614C79.0081 203.547 79.2761 203.592 79.4101 204.083C79.5666 204.652 80.0241 204.317 80.3481 204.217C80.6715 204.116 80.828 203.938 80.5155 203.625C80.3146 203.425 80.4035 203.246 80.6495 203.179C80.895 203.112 81.1515 203.068 81.4085 203.045C81.6205 203.023 81.8215 203.012 81.6765 203.358C81.509 203.748 81.777 203.904 82.1115 203.96C82.201 203.983 82.324 203.983 82.402 203.949C83.3064 203.592 84.2999 203.558 85.2154 203.246C85.6169 203.112 85.8739 202.922 85.5389 202.465C85.2824 202.119 85.5834 201.996 85.8069 202.007C86.7893 202.041 87.6488 201.583 88.5752 201.383C89.0777 201.282 89.6137 201.327 90.1497 201.193C90.1832 201.673 89.7252 201.65 89.5912 201.963C90.3057 202.03 90.9757 201.929 91.6341 201.751C91.7456 201.717 91.8796 201.673 91.8911 201.539C91.8911 201.394 91.7681 201.36 91.6566 201.316C91.5116 201.249 91.2991 201.215 91.3326 201.025C91.3776 200.825 91.6231 200.769 91.7791 200.813C92.0921 200.88 92.7841 200.356 92.6056 201.293C92.6056 201.338 92.6836 201.416 92.7506 201.449C93.2081 201.673 94.0011 201.293 94.135 200.802C94.28 200.255 94.8045 200.088 95.2175 199.999C96.133 199.798 97.0484 199.452 98.0199 199.631C98.1649 199.653 98.3434 199.631 98.4889 199.575C98.8794 199.452 99.3034 199.106 99.5043 199.831C99.5493 199.988 99.7948 199.91 99.9398 199.91C100.799 199.876 101.648 199.742 102.463 199.53C103.155 199.34 103.87 199.296 104.562 199.14C104.964 199.05 105.276 199.106 105.265 199.642C105.265 199.999 105.444 200.133 105.801 200.066C106.694 199.898 107.598 199.764 108.491 199.586C108.904 199.497 109.172 199.474 109.183 200.021C109.194 200.423 109.429 200.657 109.864 200.456C110.255 200.278 110.422 200.512 110.512 200.836C110.657 201.405 110.969 201.65 111.561 201.472C111.695 201.438 111.84 201.472 111.974 201.449C112.722 201.26 113.202 201.394 113.37 202.286C113.47 202.8 113.838 202.833 114.185 202.431C114.374 202.219 114.531 202.197 114.609 202.487C114.944 203.771 115.279 205.064 115.58 206.359C115.669 206.727 115.58 207.028 115.111 207.084C114.754 207.129 114.676 207.385 114.72 207.698C114.776 208.088 114.854 208.479 115 208.858C115.212 209.383 115.078 209.64 114.542 209.796C114.118 209.907 113.693 210.019 113.269 210.086C112.845 210.153 112.744 210.398 112.845 210.767C112.934 211.124 113.124 211.358 113.526 211.157C114.006 210.923 114.207 211.191 114.274 211.592C114.341 212.05 114.386 212.474 115 212.496C115.156 212.496 115.279 212.664 115.189 212.798C114.933 213.21 114.866 213.846 114.207 213.869C113.66 213.891 113.515 214.159 113.66 214.65C113.66 214.672 113.671 214.695 113.671 214.706C113.615 215.241 114.106 215.955 113.649 216.257C113.269 216.513 112.722 216.748 112.186 216.837C111.851 216.893 111.673 217.038 111.695 217.384C111.728 217.696 111.84 218.064 112.142 218.087C112.521 218.109 112.354 217.707 112.409 217.484C112.432 217.417 112.443 217.339 112.499 217.172C112.778 217.674 112.823 218.143 112.934 218.588C112.99 218.812 112.856 218.979 112.61 219.001C112.03 219.057 112.019 219.459 112.097 219.872C112.186 220.318 112.354 220.742 112.476 221.188C112.711 222.014 112.767 222.873 112.733 223.733C112.733 223.889 112.767 224.09 112.543 224.101C112.365 224.101 112.354 223.934 112.354 223.788C112.354 223.666 112.331 223.532 112.175 223.543C112.063 223.554 112.041 223.677 112.041 223.777C112.041 224.268 111.807 224.748 111.907 225.25C111.952 225.451 111.918 225.73 111.684 225.73C111.17 225.73 110.847 226.176 110.366 226.221C109.987 226.255 109.853 226.478 109.953 226.846C110.032 227.17 109.808 227.527 109.842 227.728C109.965 228.397 109.607 228.542 109.139 228.743C108.927 228.832 108.904 229.145 108.938 229.39C109.005 229.881 109.061 230.372 109.15 230.863C109.172 231.008 109.239 231.209 109.083 231.22C108.491 231.265 108.212 231.912 107.609 231.945C107.275 231.956 107.141 232.202 107.208 232.536C107.286 232.949 107.342 233.362 107.431 233.764C107.52 234.177 107.375 234.445 106.951 234.478C106.393 234.523 106.214 234.768 106.359 235.304C106.393 235.449 106.448 235.661 106.236 235.706C106.069 235.739 106.024 235.561 105.98 235.427C105.935 235.304 105.924 235.114 105.734 235.148C105.566 235.181 105.6 235.371 105.6 235.505C105.578 235.94 105.578 236.375 105.7 236.81C105.812 237.212 105.7 237.48 105.243 237.513C104.729 237.547 104.618 237.859 104.729 238.306C104.807 238.596 104.885 238.886 104.975 239.165C105.075 239.455 105.22 239.667 105.477 239.265C105.544 239.165 105.611 239.031 105.745 239.143C105.823 239.209 105.879 239.343 105.901 239.455C105.924 239.589 105.846 239.734 105.723 239.723C105.165 239.7 104.807 240.247 104.238 240.225C103.847 240.214 103.635 240.482 103.736 240.917C103.825 241.296 103.825 241.597 103.289 241.575C102.854 241.564 102.887 241.921 102.954 242.178C103.077 242.702 103.099 243.238 103.177 243.773C103.233 244.164 103.122 244.354 102.72 244.343C102.251 244.331 102.128 244.577 102.228 244.99C102.362 245.503 102.329 245.882 101.67 245.971C101.324 246.016 101.257 246.317 101.369 246.618C101.525 247.098 101.335 247.4 100.889 247.545C100.587 247.645 100.453 247.835 100.543 248.125C100.665 248.549 100.543 248.995 100.755 249.408C100.911 249.721 100.654 249.877 100.386 249.955C99.9063 250.089 99.4374 250.245 98.9464 250.323C98.5334 250.379 98.3994 250.535 98.4664 250.948C98.5559 251.495 98.5779 252.053 98.6559 252.6C98.6894 252.901 98.6004 253.057 98.2879 253.057C97.7744 253.057 97.6849 253.358 97.7744 253.771C97.8859 254.285 97.7964 254.642 97.1714 254.653C96.8364 254.664 96.7919 254.909 96.8589 255.177C97.0039 255.758 96.9594 256.17 96.2115 256.182C95.843 256.182 95.854 256.494 95.8985 256.762C95.9655 257.152 96.0325 257.543 96.1445 257.933C96.2785 258.424 96.111 258.726 95.6195 258.793C95.1955 258.86 95.0615 259.082 95.1955 259.462C95.363 259.964 95.028 260.488 95.2625 260.99C95.318 261.113 95.1395 261.169 95.017 261.18C94.414 261.281 94.2131 261.66 94.347 262.218C94.4475 262.642 94.28 262.821 93.9006 262.887C93.5656 262.943 93.2416 263.01 92.9071 263.044C92.3266 263.111 91.9691 263.356 92.0471 264.003C92.0696 264.16 92.0921 264.372 91.8911 264.405C91.6456 264.439 91.7011 264.204 91.6901 264.059C91.6676 263.881 91.6231 263.724 91.4111 263.747C91.1987 263.78 91.2547 263.97 91.2437 264.126C91.1767 265.008 91.1097 265.889 91.3106 266.771C91.3551 266.949 91.2547 267.072 91.0872 267.139C90.6517 267.329 90.2837 267.652 89.7812 267.675C89.4127 267.697 89.3347 267.909 89.4127 268.255C89.5357 268.779 89.6027 269.315 89.6917 269.839C89.7477 270.208 89.7142 270.453 89.2227 270.397C88.8432 270.353 88.6982 270.587 88.7987 270.978C88.9437 271.547 88.7987 271.948 88.1513 272.082C87.8943 272.126 87.7158 272.261 87.8608 272.596C88.0843 273.076 87.7828 273.298 87.3808 273.309C86.8003 273.332 86.5993 273.599 86.6888 274.146C86.7448 274.503 86.6108 274.738 86.2308 274.771C85.7289 274.805 85.5724 275.05 85.7064 275.53C85.8178 275.921 85.7844 276.222 85.2374 276.255C84.7689 276.278 84.7354 276.646 84.8244 277.014C84.9474 277.505 84.9584 277.873 84.2999 277.94C83.9759 277.974 83.9649 278.286 84.0319 278.565C84.1544 279.067 83.9874 279.335 83.4514 279.346C83.016 279.357 82.8485 279.614 82.949 280.027C83.072 280.518 82.9935 280.83 82.402 280.897C82.056 280.931 82 281.243 82.0445 281.545C82.1115 282.024 82.0115 282.37 81.453 282.437C81.23 282.46 81.051 282.605 81.107 282.839C81.23 283.363 81.0625 283.91 81.241 284.435C81.3525 284.758 81.2635 284.937 80.8835 284.915C80.2921 284.881 79.9686 285.539 79.3766 285.506C79.3431 285.506 79.2426 285.673 79.2651 285.751C79.3876 286.287 79.1646 286.822 79.3206 287.358C79.4326 287.748 79.2876 287.927 78.8966 287.938C78.3496 287.949 78.0926 288.239 78.1596 288.775C78.1821 289.009 78.0816 289.099 77.8921 289.166C77.5012 289.299 77.1107 289.456 76.7197 289.59C76.0947 289.802 75.9717 290.014 76.1282 290.661C76.1837 290.884 76.3402 291.096 76.3847 291.33C76.4632 291.743 76.6302 292.223 76.0052 292.402C75.7822 292.469 75.7037 292.669 75.7152 292.87C75.7487 293.886 75.3912 294.778 74.8333 295.604C74.7883 295.671 74.7328 295.738 74.7213 295.816C74.4313 297.334 73.2588 298.316 72.4438 299.521C72.2988 299.744 72.1539 299.956 72.0979 300.212C72.0089 300.558 71.8189 300.837 71.5174 301.016C71.1154 301.25 70.9484 301.574 70.9704 302.042C71.0149 302.89 70.6019 303.538 69.9434 304.017C69.4744 304.363 69.285 304.787 69.095 305.356C68.7155 306.506 68.358 307.644 68.068 308.816C67.945 309.329 67.599 309.809 67.588 310.378C67.588 310.646 67.398 310.802 67.1635 310.902C66.7286 311.081 66.4941 311.382 66.5276 311.862C66.5276 312.018 66.5276 312.253 66.3711 312.275C65.8576 312.353 65.6006 312.889 65.0871 312.956C64.8191 312.989 64.7301 313.157 64.7971 313.369C64.9981 314.016 64.5851 314.194 64.1051 314.305C63.7367 314.395 63.3572 314.439 62.9887 314.462C62.4972 314.495 62.2852 314.741 62.4192 315.209C62.5757 315.756 62.3857 316.002 61.8387 316.035C61.4477 316.057 61.2583 316.281 61.2918 316.66C61.3363 317.095 61.1578 317.318 60.7448 317.441C60.4433 317.53 60.2313 317.798 59.9073 317.899C59.4608 318.032 59.1818 317.91 59.0588 317.441C58.9028 316.85 58.7238 316.258 58.5234 315.678C58.4339 315.421 58.3559 315.098 57.9539 315.399C57.7194 315.578 57.5294 315.444 57.4514 315.198C57.3734 314.941 57.2059 314.629 57.5744 314.484C57.8089 314.383 58.0989 314.417 58.1659 314.082C58.2329 313.781 58.2104 313.469 58.0319 313.223C57.6634 312.71 57.5854 312.208 57.7304 311.561C57.8424 311.081 57.6189 310.512 57.5294 309.987C57.4514 309.563 57.5294 309.284 58.0429 309.307C58.5009 309.318 58.4899 308.95 58.4339 308.671C58.3224 308.113 58.3669 307.744 59.0813 307.711C59.4608 307.689 59.5278 307.343 59.4048 307.03C59.2488 306.617 59.2488 306.171 59.1373 305.747C59.0368 305.345 59.1593 305.122 59.5613 305.066C60.0858 304.988 60.2868 304.709 60.1418 304.185C60.0413 303.839 60.1863 303.638 60.5328 303.616C61.0573 303.582 61.1018 303.225 61.0013 302.846C60.8788 302.366 60.6888 301.908 60.5213 301.44C60.4543 301.261 60.3093 301.183 60.1418 301.239C59.5388 301.462 59.3378 301.038 59.2263 300.614C59.1038 300.168 58.9698 299.944 58.4449 300.112C58.0879 300.223 57.8424 300.045 57.7419 299.665C57.6414 299.264 57.4849 298.874 57.3954 298.461C57.3174 298.093 57.1499 297.948 56.7704 298.037C56.3239 298.148 55.9889 298.037 55.9109 297.501C55.8549 297.099 55.5985 296.977 55.2185 297.088C54.828 297.2 54.627 296.988 54.5155 296.642C54.3815 296.184 54.214 295.738 54.091 295.269C54.002 294.912 53.823 294.745 53.455 294.89C52.9636 295.091 52.6956 294.879 52.5616 294.421C52.4501 294.064 52.3276 293.774 51.9366 294.209C51.8026 294.354 51.6911 294.299 51.6131 294.142C51.5126 293.919 51.3786 293.707 51.3561 293.473C51.3001 292.859 50.9656 292.736 50.4632 292.881C50.0053 293.015 49.7821 292.881 49.7597 292.39C49.7262 291.888 49.503 291.632 48.9783 291.877C48.6546 292.033 48.4424 291.899 48.409 291.609C48.3308 291.096 47.9959 290.672 47.9401 290.148C47.8954 289.768 47.6499 289.668 47.3484 289.802C46.8684 290.014 46.6897 289.779 46.5893 289.366C46.4665 288.887 46.1539 288.474 46.0981 287.96C46.0646 287.603 45.7744 287.57 45.4729 287.559C45.071 287.559 44.725 287.492 44.7585 286.923C44.7808 286.577 44.4794 286.577 44.2338 286.633C43.6086 286.755 43.1732 286.666 43.1621 285.885C43.1621 285.562 42.8942 285.528 42.6262 285.64C42.1351 285.852 41.9788 285.562 41.8894 285.16C41.6773 284.29 41.4652 283.43 41.2531 282.56C41.1526 282.147 41.0187 281.824 40.4828 282.08C40.2149 282.214 40.0586 282.047 39.9805 281.824C39.813 281.366 39.6455 280.897 39.5005 280.429C39.4335 280.217 39.3553 280.016 39.1097 280.083C38.5738 280.228 38.038 280.027 37.5133 280.15C37.1337 280.239 36.9551 280.072 36.8881 279.715C36.7207 278.956 36.5533 278.208 36.3858 277.449C36.2742 276.914 35.9727 276.69 35.4369 276.902C35.169 277.003 34.9569 276.992 34.9457 276.635C34.9234 276.032 34.4433 275.664 34.1977 275.173C34.1642 275.095 34.1084 275.028 34.0191 275.061C33.9075 275.095 33.9075 275.206 33.9075 275.307C33.9075 275.463 33.9522 275.664 33.7289 275.675C33.5056 275.686 33.5168 275.463 33.4944 275.318C33.3047 274.459 32.8804 273.7 32.5232 272.908C32.4786 272.819 32.4451 272.718 32.3223 272.729C32.1771 272.741 32.1325 272.852 32.1437 272.986C32.1548 273.142 32.1883 273.343 31.9762 273.376C31.7417 273.399 31.7083 273.175 31.6636 273.008C31.5408 272.595 31.418 272.172 31.3064 271.748C31.2059 271.391 31.0496 271.156 30.6254 271.324C30.4914 271.379 30.3016 271.424 30.2682 271.257C30.1677 270.688 29.6319 270.342 29.5649 269.761C29.5202 269.36 29.5091 269.047 30.0449 269.025C30.4468 269.003 30.5696 268.701 30.5249 268.344C30.4691 267.954 30.2235 267.898 29.8663 267.954C29.3974 268.043 28.9285 268.087 28.4485 268.154C28.1918 268.188 27.9127 268.166 27.8903 267.864C27.8568 267.329 27.4326 266.938 27.388 266.414C27.3656 266.146 27.1647 265.889 26.841 266.079C26.3721 266.347 26.2828 266.001 26.1823 265.711C25.8809 264.874 25.6018 264.026 25.3004 263.189C25.2557 263.055 25.2781 262.821 25.0548 262.854C24.8762 262.876 24.932 263.077 24.9097 263.2C24.8873 263.334 24.9097 263.524 24.7422 263.535C24.5636 263.546 24.5747 263.356 24.5189 263.233C24.184 262.463 23.9384 261.671 23.8268 260.845C23.771 260.41 23.5477 260.343 23.157 260.421C22.3755 260.578 22.3532 260.544 22.1746 259.763C22.0964 259.418 22.0741 259.016 21.4936 259.361C21.1029 259.596 21.0359 259.116 20.9243 258.882C20.5224 258.09 20.3103 257.253 20.221 256.36C20.1875 256.025 19.9196 255.936 19.6405 256.059C19.1269 256.282 18.9483 255.992 18.8479 255.568C18.6469 254.753 18.4348 253.95 18.2785 253.135C18.2004 252.745 18.0217 252.644 17.6645 252.7C17.0952 252.8 16.5928 252.789 16.537 251.997C16.5258 251.751 16.3249 251.517 16.0347 251.74C15.5993 252.064 15.4876 251.696 15.4206 251.439C15.1974 250.58 14.7508 249.776 14.7732 248.861C14.7732 248.415 14.5722 248.203 14.1033 248.259C13.5675 248.326 13.2549 248.147 13.2884 247.545C13.3107 247.188 13.0651 246.998 12.7525 247.098C12.1386 247.288 11.9376 247.031 11.8818 246.462C11.8483 246.194 11.692 245.938 11.6139 245.681C11.4799 245.179 11.3571 244.711 10.665 245.079C10.4417 245.202 10.2742 245.023 10.2184 244.822C10.0621 244.354 9.88354 243.885 9.80539 243.394C9.72724 242.892 9.48165 242.724 9.03507 242.825C8.55504 242.937 8.43224 242.747 8.34294 242.3C8.25365 241.821 8.01921 241.374 7.81826 240.917C7.72897 240.705 7.51682 240.66 7.30473 240.749C6.8582 240.939 6.7019 240.694 6.60146 240.303C6.37817 239.444 5.96513 238.629 5.89813 237.725C5.87578 237.458 5.69719 237.335 5.42925 237.424C4.83759 237.614 4.60316 237.279 4.43571 236.788C4.31291 236.42 4.23476 235.918 3.6096 236.23C3.38633 236.342 3.29702 236.096 3.28586 235.918C3.26353 235.561 3.14073 235.27 2.92863 234.991C2.72768 234.724 2.76117 234.389 2.75001 234.065C2.75001 233.63 3.06259 233.652 3.36401 233.619C3.55378 233.597 3.57611 233.396 3.53146 233.239C3.47564 233.05 3.36401 232.882 3.1519 232.949C2.50441 233.173 2.43743 232.659 2.28114 232.269C1.78994 231.086 1.86809 229.781 1.41038 228.587C1.0978 227.783 1.29875 227.594 2.15834 227.504C2.44859 227.471 2.73884 227.393 3.0291 227.337C3.29702 227.281 3.62077 227.259 3.53146 226.835C3.45331 226.444 3.25237 226.176 2.80583 226.199C2.63837 226.199 2.50441 226.288 2.38161 226.388C1.49969 227.036 1.17595 226.902 0.941514 225.831C0.762896 225.061 0.617769 224.291 0.640097 223.487C0.640097 223.331 0.606606 223.141 0.796385 223.074C0.975003 223.007 1.0978 223.152 1.18711 223.275C1.43271 223.588 1.68947 223.889 1.72296 224.324C1.73413 224.503 1.78994 224.681 1.86809 224.837C2.09136 225.239 2.49325 225.373 2.88397 225.284C3.27469 225.194 3.10724 224.793 3.10724 224.514C3.10724 224.023 2.86164 223.599 2.72768 223.141C2.59372 222.695 2.67186 222.394 3.20772 222.36C3.63193 222.338 3.89986 222.148 3.78822 221.679C3.69891 221.255 3.66542 220.753 3.00677 220.876C2.67186 220.943 2.44859 220.831 2.39278 220.497C2.33696 220.173 2.59372 220.151 2.83931 220.073C3.39749 219.883 3.84404 219.47 4.43571 219.336C4.67014 219.28 4.62548 219.024 4.53618 218.834C4.42454 218.611 4.49152 218.376 4.7148 218.365C5.3846 218.321 5.84233 217.83 6.44516 217.629C7.13729 217.406 7.85176 217.406 8.54389 217.239C8.92347 217.149 9.23601 217.06 9.03507 216.536C8.87882 216.123 9.20256 215.922 9.5486 215.799C9.77189 215.721 10.0175 215.732 10.2184 215.576C10.4305 215.42 10.6985 215.286 10.3524 214.996C10.2631 214.918 10.1626 214.806 10.2742 214.695C10.464 214.516 10.7096 214.527 10.944 214.538C11.078 214.538 11.1896 214.65 11.1561 214.773C11.0892 215.085 11.011 215.375 11.5022 215.364C12.0269 215.364 12.6409 215.252 12.7191 214.717C12.8195 214.014 13.2326 213.98 13.7349 213.925C13.7907 213.925 13.8577 213.902 13.9135 213.902C14.1926 213.902 14.628 213.612 14.7062 213.947C14.8067 214.371 14.3043 214.215 14.0475 214.282C13.947 214.315 13.8354 214.326 13.8577 214.46C13.8801 214.594 14.0029 214.572 14.0922 214.572C15.0634 214.549 16.0347 214.549 16.9835 214.326C17.3966 214.226 17.698 214.226 17.8543 214.75C17.9882 215.174 18.6804 215.185 18.926 214.806C19.1492 214.46 18.7362 214.449 18.5799 214.17L18.6246 214.125ZM45.9195 258.436C45.9195 258.436 45.8972 258.514 45.8748 258.547C45.7409 258.703 45.339 258.558 45.3948 258.871C45.4618 259.216 45.7855 259.016 45.9976 259.005C47.5829 259.005 47.6275 259.027 48.007 260.6C48.007 260.633 48.0182 260.678 48.0294 260.712C48.0964 261.046 48.3196 261.225 48.6211 261.147C49.1457 261.013 49.6369 261.314 50.1505 261.191C50.2957 261.158 50.4407 261.225 50.4851 261.381C50.5411 261.582 50.4072 261.705 50.2397 261.705C49.7709 261.727 49.7151 262.062 49.6816 262.408C49.6034 263.178 49.983 263.825 50.2732 264.494C50.3517 264.684 50.5746 264.773 50.7866 264.651C51.2446 264.405 51.3451 264.628 51.4676 265.041C51.6016 265.488 51.8136 265.978 52.4726 265.778C52.6066 265.733 52.7516 265.778 52.7741 265.9C52.8411 266.347 53.265 266.637 53.3095 267.083C53.3545 267.563 53.611 267.719 54.0355 267.597C54.5375 267.451 54.705 267.663 54.7945 268.132C55.096 269.839 55.375 270.029 57.0829 269.806C57.1054 269.806 57.1164 269.806 57.1389 269.795C57.3954 269.75 57.5964 269.828 57.6189 270.096C57.6414 270.342 57.6749 270.654 57.2839 270.665C56.7034 270.687 56.8934 271.112 56.9044 271.402C56.9269 271.748 57.0719 272.082 57.4849 271.982C58.1099 271.826 58.3224 272.138 58.4229 272.651C58.5009 273.053 58.7128 273.175 59.1148 272.997C59.5838 272.796 60.0973 272.986 60.5773 272.885C60.8118 272.841 60.9123 273.075 60.9343 273.276C61.0573 274.202 61.4257 275.039 61.7942 275.876C61.8497 275.987 61.8832 276.11 62.0287 276.11C62.1847 276.11 62.2852 275.999 62.2962 275.842C62.2962 275.742 62.2742 275.642 62.2627 275.552C62.2407 275.418 62.1622 275.251 62.3632 275.218C62.4972 275.195 62.5307 275.351 62.5642 275.474C62.7987 276.233 63.0777 276.981 63.2452 277.751C63.3682 278.364 63.5912 278.543 64.2051 278.353C64.6406 278.219 65.2546 278.041 65.5671 278.387C65.9021 278.755 66.2596 279.201 66.3711 279.726C66.5276 280.44 66.6616 281.165 66.7285 281.902C66.829 282.928 67.0075 282.962 68.0455 282.772C69.5194 282.504 70.9034 281.801 72.4328 281.779C72.9798 281.779 73.0583 281.366 72.9463 280.92C72.8458 280.529 72.8908 280.239 73.3708 280.194C73.9288 280.15 74.0738 279.848 73.9398 279.335C73.8728 279.056 73.9398 278.788 74.2638 278.733C74.7998 278.654 74.9113 278.342 74.7883 277.873C74.6878 277.46 74.8668 277.248 75.2797 277.271C75.7372 277.304 75.8487 277.092 75.7707 276.69C75.7487 276.557 75.7372 276.411 75.7262 276.278C75.6817 275.876 75.7262 275.563 76.2507 275.552C76.5522 275.552 76.6082 275.318 76.6082 275.039C76.5967 274.202 76.5857 273.365 76.2732 272.573C76.1282 272.194 76.2842 271.948 76.6752 271.87C77.0992 271.792 77.4232 271.524 77.7801 271.301C77.9366 271.201 78.1261 271.123 78.0371 270.9C77.9476 270.688 77.7802 270.777 77.6352 270.833C77.5347 270.866 77.4232 270.855 77.3897 270.743C77.3337 270.587 77.4567 270.531 77.5682 270.498C78.0256 270.364 78.4836 270.23 78.9411 270.118C79.2651 270.04 79.4881 270.141 79.5106 270.52C79.5106 270.699 79.5331 270.9 79.7451 270.955C80.1021 271.045 80.4595 270.966 80.783 270.788C81.0845 270.609 80.973 270.308 80.9505 270.029C80.839 268.891 80.482 267.82 80.1691 266.726C79.9686 265.99 80.1136 265.811 80.8615 265.677C81.23 265.61 81.598 265.499 81.9555 265.398C82.212 265.331 82.3575 265.142 82.2345 264.907C82 264.461 82.123 263.959 81.9665 263.512C81.855 263.2 82.0225 263.077 82.257 263.066C82.9935 263.044 83.0829 262.586 83.005 262.006C82.96 261.649 83.0495 261.426 83.4514 261.392C83.9314 261.348 84.1099 261.057 83.9984 260.6C83.8979 260.198 83.9984 259.93 84.4339 259.863C84.8244 259.808 84.8914 259.551 84.8469 259.206C84.7689 258.692 84.7129 258.179 84.6569 257.666C84.6234 257.364 84.6904 257.13 85.0589 257.152C85.6619 257.186 85.7843 256.84 85.7064 256.36C85.6394 255.992 85.7399 255.791 86.1308 255.735C86.4878 255.691 86.5548 255.389 86.4543 255.155C86.1308 254.463 86.5213 254.296 87.0793 254.251C87.5373 254.206 87.6488 253.95 87.5483 253.559C87.4593 253.191 87.3363 252.834 87.2468 252.466C87.0793 251.83 87.2918 251.818 87.7828 251.439C88.2408 251.093 89.4907 251.406 89.0887 250.167C89.0667 250.111 89.1447 250.022 89.1892 249.955C89.3232 249.721 89.3792 249.464 89.2897 249.207C89.1447 248.772 89.3567 248.582 89.7477 248.471C90.4732 248.27 91.1987 248.047 91.9246 247.846C92.2816 247.745 92.4046 247.522 92.3376 247.176C92.2706 246.819 92.0361 246.73 91.7121 246.808C91.3442 246.897 91.1987 246.708 91.1207 246.395C91.0092 245.949 90.9197 245.503 90.7747 245.068C90.5962 244.543 90.7187 244.264 91.3106 244.242C91.6006 244.231 91.8461 244.086 92.0696 243.918C92.3486 243.718 92.8286 243.907 92.9961 243.472C93.1411 243.07 92.7951 242.803 92.6611 242.49C92.3821 241.809 92.7171 241.118 92.5051 240.448C92.4381 240.214 92.6836 240.147 92.8956 240.113C93.6101 239.979 93.6661 239.901 93.5656 239.165C93.5211 238.864 93.4986 238.585 93.9226 238.573C94.1235 238.573 94.2575 238.428 94.202 238.272C94.0121 237.647 94.4695 237.033 94.1685 236.409C94.079 236.23 94.0121 235.873 94.403 235.895C95.0055 235.929 94.9945 235.605 94.894 235.17C94.76 234.59 94.894 234.422 95.497 234.311C95.91 234.233 96.3005 234.121 96.7134 234.043C97.0819 233.976 97.2269 233.786 97.1154 233.418C96.9594 232.86 97.1604 232.525 97.7409 232.458C98.0644 232.414 98.0199 232.224 98.0309 231.945C98.0644 230.885 97.6624 229.926 97.4839 228.91C97.2159 227.415 97.1379 227.471 98.7899 227.181C99.3484 227.08 99.5379 226.857 99.4374 226.31C99.2254 225.139 99.0244 223.967 98.9354 222.773C98.9129 222.505 98.7789 222.17 99.2369 222.159C99.8173 222.159 99.8058 221.78 99.7388 221.378C99.6498 220.854 99.5378 220.329 99.4489 219.794C99.3929 219.459 99.4154 219.146 99.8393 219.057C100.063 219.012 100.185 218.856 100.141 218.622C100.018 217.819 99.9063 217.016 99.7723 216.212C99.7388 215.989 99.6049 215.81 99.4374 215.654C99.2924 215.52 99.1474 215.353 98.9239 215.464C98.7229 215.565 98.6559 215.755 98.6674 215.967C98.6674 216.101 98.6894 216.246 98.7454 216.379C98.9574 216.87 98.6784 217.083 98.2764 217.216C97.8189 217.361 97.6069 217.094 97.4949 216.714C97.3834 216.335 97.2939 215.944 97.2049 215.565C97.1269 215.219 96.9704 214.907 96.591 214.973C96.0105 215.085 95.854 214.784 95.776 214.315C95.709 213.925 95.4185 213.802 95.0615 213.858C94.704 213.913 94.492 214.137 94.5145 214.516C94.5145 214.65 94.57 214.795 94.5815 214.929C94.615 215.241 94.5925 215.531 94.213 215.632C93.8446 215.721 93.4986 215.732 93.2641 215.364C93.2081 215.286 93.1861 215.186 93.1636 215.085C93.0631 214.75 92.8286 214.672 92.5051 214.739C92.1926 214.806 92.0921 214.996 92.1476 215.308C92.1811 215.498 92.1476 215.699 92.1141 215.9C91.9916 216.859 92.2036 217.105 93.1746 216.971C93.5766 216.915 93.7886 217.038 93.8556 217.428C93.9226 217.841 94.1125 218.053 94.548 217.864C94.9385 217.707 95.1395 217.897 95.2735 218.243C95.631 219.146 95.631 219.146 96.5685 218.879C96.736 218.834 96.9035 218.767 97.0709 218.7C97.4949 218.544 97.6624 218.845 97.7744 219.146C97.9079 219.503 97.6739 219.693 97.3724 219.738C96.613 219.838 95.8205 220.218 95.1175 219.526C95.039 219.448 94.894 219.459 94.7825 219.425C94.0455 219.224 93.3756 219.503 92.6946 219.704C92.2816 219.827 91.8796 219.883 91.7346 219.347C91.6006 218.834 91.3442 218.7 90.8192 218.812C90.2502 218.923 90.3727 219.191 90.4732 219.57C90.5737 219.927 90.3392 220.151 89.9932 220.184C89.6247 220.218 89.2117 220.285 89.0552 219.782C88.9547 219.448 88.9547 219.091 89.3682 219.024C90.0827 218.912 90.0937 218.488 89.9707 217.941C89.9152 217.685 89.9037 217.428 89.8482 217.172C89.7362 216.658 89.4352 216.48 88.9212 216.658C88.5083 216.792 88.0843 216.904 87.6713 217.038C87.4478 217.116 87.2468 217.25 87.3808 217.518C87.5928 217.942 87.5263 218.421 87.6598 218.856C87.8163 219.392 87.5038 219.66 87.0908 219.715C86.7223 219.771 86.2978 219.715 86.2423 219.113C86.2088 218.767 86.1973 218.455 86.2868 218.131C86.3648 217.864 86.4208 217.54 86.0973 217.395C85.7399 217.239 85.3494 217.25 85.0144 217.473C84.7239 217.674 84.6794 218.064 84.8689 218.276C85.6059 219.135 85.3714 220.184 85.5164 221.155C85.5949 221.635 85.8404 222.182 84.9584 222.416C84.5119 222.539 84.0654 222.862 83.5519 222.94C82.871 223.052 82.1785 223.175 81.4975 223.32C81.107 223.398 80.839 223.32 80.7275 222.896C80.6605 222.617 80.4706 222.394 80.1806 222.472C79.6111 222.617 79.4436 222.315 79.3431 221.847C79.2761 221.546 79.0751 221.367 78.7291 221.423C78.3831 221.479 78.2266 221.668 78.2156 222.037C78.1931 222.728 78.0146 222.907 77.3447 222.929C76.9877 222.94 76.6302 222.907 76.2732 222.974C75.8602 223.052 75.8602 222.695 75.8157 222.427C75.7707 222.17 75.8377 221.992 76.1502 222.014C76.6302 222.048 76.6637 221.746 76.5967 221.389C76.5297 221.043 76.5747 220.72 76.6752 220.396C76.7532 220.128 76.9317 219.849 76.6192 219.57C76.2957 219.28 75.9607 219.213 75.5812 219.347C75.2127 219.481 74.8553 219.693 74.4758 219.782C73.9288 219.916 73.8728 220.251 74.0628 220.675C74.1968 220.965 74.2863 221.267 74.3533 221.579C74.5318 222.338 74.2638 222.728 73.4598 222.784C73.1583 222.806 72.8683 222.784 72.5668 222.818C72.3103 222.84 72.0979 222.985 72.1429 223.286C72.1874 223.588 72.3773 223.744 72.6898 223.71C73.0248 223.666 73.3593 223.621 73.6388 223.398C73.8393 223.242 74.0518 223.264 74.2303 223.443C74.5093 223.722 74.6658 224.056 74.5988 224.469C74.5538 224.715 74.3643 224.748 74.1633 224.793C73.7613 224.882 73.3593 225.005 72.9578 225.116C72.5893 225.217 72.3214 225.172 72.3214 224.692C72.3214 224.19 72.0309 224.045 71.6179 224.213C70.7809 224.547 69.9099 224.715 69.039 224.904C68.6485 224.994 68.5705 225.306 68.8385 225.607C69.017 225.808 69.24 225.831 69.4859 225.819C69.9099 225.819 69.9879 226.154 70.0439 226.467C70.1109 226.824 69.8989 226.969 69.5975 227.047C68.883 227.225 68.1575 227.326 67.4205 227.326C67.3425 227.326 67.264 227.326 67.186 227.315C67.0295 227.292 66.84 227.248 66.8511 227.047C66.8625 226.835 67.052 226.913 67.186 226.924C67.3425 226.935 67.4985 226.902 67.521 226.746C67.588 226.288 67.577 225.819 67.32 225.418C67.0745 225.038 66.6726 225.094 66.2931 225.228C65.6121 225.451 64.9311 225.652 64.2276 225.797C63.8482 225.875 63.5692 226.109 63.6362 226.545C63.6807 226.879 63.5357 227.025 63.2232 227.08C62.9102 227.125 62.7317 227.27 62.7207 227.627C62.6762 228.676 62.6312 228.709 61.6042 228.732C61.3923 228.732 61.1688 228.765 60.9568 228.788C60.8338 228.799 60.6888 228.821 60.6668 228.676C60.6443 228.475 60.8003 228.442 60.9458 228.486C61.2583 228.587 61.4257 228.486 61.4032 228.163C61.3807 227.627 61.5597 227.292 62.1402 227.203C62.4082 227.158 62.4862 226.891 62.4302 226.634C62.3857 226.444 62.2292 226.377 62.0622 226.433C61.2918 226.69 60.4543 226.489 59.6843 226.824C58.4114 227.382 56.9824 227.214 55.6765 227.649C55.2855 227.772 55.0065 227.906 55.163 228.386C55.2745 228.732 55.163 228.977 54.7835 229.044C54.415 229.111 54.024 229.156 53.9235 228.676C53.8345 228.219 53.6 228.152 53.198 228.241C52.7626 228.341 52.6736 228.598 52.7626 228.988C52.8411 229.357 52.8746 229.736 52.9751 230.104C53.0866 230.54 52.8966 230.752 52.5061 230.819C52.0596 230.908 51.6016 230.975 51.1551 231.053C50.6976 231.131 50.3737 231.031 50.3182 230.484C50.2732 230.026 50.0277 230.104 49.7486 230.294C49.5253 230.45 49.4806 230.673 49.5365 230.93C49.6146 231.276 49.4806 231.477 49.1457 231.533C48.1299 231.711 47.114 231.878 46.0981 232.046C45.8972 232.079 45.6627 232.068 45.6739 231.778C45.6962 231.376 45.6069 230.897 46.1874 230.785C46.4553 230.729 46.5446 230.551 46.5 230.294C46.4553 230.06 46.2991 229.948 46.0758 229.948C45.6181 229.948 45.1603 229.948 44.7027 229.97C44.3566 229.982 44.2003 230.182 44.2338 230.517C44.2561 230.729 44.2896 230.952 44.3231 231.164C44.4571 232.057 44.0552 232.563 43.1174 232.682C42.9946 232.693 42.883 232.715 42.7602 232.737C42.4699 232.793 42.2801 232.737 42.1797 232.403C42.0457 231.945 41.7108 231.789 41.2419 231.945C40.8289 232.079 40.4158 232.235 39.9916 232.324C39.5563 232.414 39.4223 232.637 39.5674 233.05C39.6344 233.228 39.7014 233.385 39.5227 233.541C39.0986 233.909 38.5069 233.73 38.3506 233.173C38.2613 232.849 38.172 232.492 37.7478 232.458C37.5468 232.447 37.2677 232.637 37.1784 232.347C37.0779 232.035 37.4463 232.012 37.6026 231.856C37.6696 231.789 37.7478 231.722 37.8147 231.644C38.1273 231.265 38.0715 230.885 37.8036 230.495C37.5245 230.104 37.1896 230.138 36.7989 230.305C36.397 230.484 35.9839 230.629 35.582 230.785C35.2583 230.908 35.1355 231.131 35.3141 231.443C35.5373 231.856 35.5708 232.324 35.649 232.771C35.783 233.485 35.6378 233.697 34.968 233.965C34.8564 234.009 34.7782 234.11 34.6778 234.166C34.1642 234.445 33.3381 234.065 33.2935 233.541C33.2414 232.894 32.9028 232.626 32.2776 232.737C31.9204 232.804 31.5743 232.849 31.2171 232.905C31.0608 232.927 30.871 232.938 30.7817 233.072C30.4356 233.585 30.2458 234.177 30.0114 234.735C29.8886 235.025 29.9779 235.505 29.9445 235.895C29.8886 236.576 30.1788 236.855 30.8598 236.743C31.2841 236.676 31.6189 236.732 31.7418 237.212C31.8199 237.513 31.9985 237.647 32.3111 237.58C32.5679 237.524 32.7353 237.67 32.8023 237.904C33.0032 238.607 33.3381 239.276 33.3605 240.024C33.3605 240.359 33.3605 240.638 32.9139 240.582C32.7242 240.56 32.5902 240.627 32.6125 240.839C32.6349 241.028 32.7911 241.118 32.9586 241.084C33.2935 241.028 33.5838 241.062 33.8629 241.263C33.9857 241.352 34.1307 241.341 34.2647 241.263C34.5996 241.062 34.7894 241.218 34.8899 241.542C34.9904 241.865 34.9569 242.133 34.5438 242.211C34.287 242.256 34.1307 242.446 34.0079 242.646C33.8963 242.825 33.7847 242.97 33.5391 242.959C33.3493 242.936 33.0925 242.892 33.1037 243.193C33.1037 243.494 33.3605 243.517 33.5838 243.506C33.9522 243.506 34.2982 243.64 34.4433 243.941C34.8676 244.767 35.6155 244.644 36.33 244.633C36.6426 244.633 36.9886 244.443 37.0779 244.934C37.1449 245.335 37.1449 245.681 36.6091 245.77C36.1625 245.848 36.1179 246.183 36.2183 246.551C36.3188 246.909 36.4193 247.288 36.9328 247.109C37.1672 247.031 37.357 247.076 37.3794 247.321C37.424 247.757 37.7031 248.091 37.7924 248.493C37.9041 248.984 38.0938 249.163 38.6185 249.029C39.0539 248.917 39.4669 249.029 39.5227 249.598C39.5562 249.921 39.7237 250.044 40.0586 249.977C40.5833 249.866 40.9628 249.977 40.9852 250.624C40.9963 250.959 41.1638 251.205 41.5769 251.037C42.0011 250.87 42.1016 251.194 42.1685 251.484C42.2355 251.774 42.3136 252.131 41.8783 252.187C41.2978 252.265 41.3201 252.622 41.3647 253.057C41.3982 253.47 41.7443 253.749 41.789 254.162C41.8225 254.474 42.0457 254.597 42.3471 254.552C42.682 254.508 42.8718 254.296 42.8048 253.972C42.7155 253.515 42.9611 253.414 43.3184 253.381C43.6756 253.347 43.8989 253.425 43.9882 253.849C44.2561 255.088 44.7027 256.293 44.859 257.554C44.9036 257.945 45.138 258.157 45.5287 258.179C45.6627 258.179 45.819 258.134 45.8972 258.302L45.9195 258.436ZM44.7696 227.091C44.7696 227.326 44.7696 227.449 44.7696 227.56C44.8143 228.419 44.9818 228.587 45.819 228.587C46.1763 228.587 46.3214 228.788 46.366 229.089C46.4218 229.435 46.6339 229.535 46.9465 229.535C47.5047 229.546 47.7391 229.267 47.7279 228.732C47.7279 228.419 47.8284 228.174 48.1745 228.129C48.4759 228.096 48.5764 228.319 48.6434 228.564C48.7774 229.022 49.1123 229.122 49.5253 229.011C49.9719 228.888 50.2622 229.022 50.3847 229.479C50.4516 229.77 50.5411 230.026 50.9321 229.926C51.3001 229.825 51.5461 229.636 51.4676 229.212C51.3226 228.352 51.1661 227.493 51.0211 226.634C50.9656 226.288 50.7866 226.154 50.4406 226.199C49.9495 226.277 49.4583 226.322 48.9783 226.433C48.6322 226.511 48.4313 226.433 48.3531 226.098C48.2415 225.563 47.9066 225.496 47.4601 225.63C46.8126 225.819 46.1763 226.054 45.5176 226.176C44.9036 226.299 44.591 226.545 44.7473 227.091H44.7696ZM48.275 198.37C48.5206 198.381 48.6099 198.537 48.7215 198.682C49.235 199.352 49.7709 200.021 50.2847 200.691C50.5301 201.014 50.8091 200.992 51.1216 200.802C51.4456 200.601 51.4566 200.345 51.2891 200.043C50.6641 198.894 49.9272 197.823 49.0787 196.819C48.8778 196.584 48.7104 196.506 48.4201 196.662C48.0517 196.841 47.8284 197.198 47.4936 197.399C46.9912 197.689 46.9912 197.957 47.3708 198.37C47.594 198.615 47.7726 198.727 48.0517 198.492C48.1187 198.437 48.2303 198.414 48.2861 198.392L48.275 198.37ZM80.5935 220.541C80.549 219.905 80.2811 219.37 80.0131 218.89C79.7451 218.41 79.2651 218.756 78.9076 218.923C78.5951 219.068 78.5061 219.37 78.7401 219.671C78.9746 219.972 79.0751 220.296 79.0866 220.664C79.0976 220.999 79.2426 221.2 79.6111 221.11C80.0016 221.01 80.549 221.155 80.5935 220.552V220.541ZM50.1282 16.2531C49.5141 16.2866 49.2574 16.7886 49.5253 17.2796C49.7597 17.7036 50.1952 17.9491 50.4516 18.3508C50.5636 18.5294 50.6526 18.8195 50.9206 18.6744C51.1996 18.5294 51.5011 18.295 51.3671 17.9268C51.1551 17.3578 50.8986 16.7887 50.3847 16.3981C50.2957 16.3311 50.1842 16.2977 50.117 16.2642L50.1282 16.2531ZM21.8173 127.235C21.516 127.346 21.3038 127.569 21.4266 127.982C21.5718 128.462 21.8062 128.897 22.1299 129.266C22.4537 129.634 22.9896 129.533 23.1905 129.087C23.3356 128.763 22.2416 127.201 21.8173 127.235ZM33.7177 231.064C33.9633 231.031 34.3094 230.975 34.6666 230.93C35.1132 230.863 35.1243 230.551 35.0685 230.216C35.0127 229.859 34.8564 229.602 34.4322 229.714C34.0861 229.814 33.7624 229.948 33.4163 230.049C33.126 230.138 32.8023 230.182 32.8469 230.595C32.9028 231.042 33.26 231.064 33.7289 231.075L33.7177 231.064ZM32.4339 228.14C32.4116 227.75 31.9874 227.828 31.6189 227.828C31.2841 227.828 30.9157 227.806 30.9268 228.319C30.9268 228.843 31.2394 229.167 31.7194 229.145C32.166 229.134 32.4562 228.799 32.4451 228.14H32.4339ZM40.2596 227.348C39.8688 227.426 39.3553 227.516 38.8529 227.616C38.652 227.661 38.5515 227.794 38.5738 228.006C38.5962 228.23 38.7413 228.397 38.9534 228.397C39.5339 228.397 40.0921 228.319 40.5945 227.984C40.7619 227.873 40.8178 227.705 40.7619 227.515C40.7061 227.315 40.5387 227.326 40.2596 227.348ZM51.1996 197.678C51.6911 197.655 52.2716 197.187 52.2381 196.852C52.1936 196.45 51.9591 196.127 51.5461 196.216C51.1776 196.294 50.6416 196.395 50.6526 196.919C50.6526 197.243 50.8536 197.6 51.2111 197.678H51.1996ZM52.2491 16.4874C52.3496 16.811 52.3496 17.2573 52.8076 17.2573C53.1311 17.2573 53.533 17.0565 53.5105 16.6771C53.477 16.32 53.343 15.8402 52.8631 15.8067C52.4726 15.7844 52.2941 16.0857 52.2491 16.4762V16.4874ZM50.7866 21.8769C50.5076 21.9661 50.1505 21.9773 50.1393 22.4125C50.1393 22.7473 50.5971 23.3052 50.8426 23.2494C51.1551 23.1712 51.5461 23.0709 51.4901 22.6245C51.4456 22.234 51.2891 21.8992 50.7866 21.888V21.8769ZM59.8068 5.46285C59.9073 5.76414 59.8518 6.14352 60.2758 6.19932C60.5883 6.24397 61.1803 5.80878 61.1353 5.55214C61.0798 5.21738 60.9343 4.8603 60.5438 4.84915C60.1643 4.83799 59.8963 5.07232 59.8068 5.474V5.46285ZM47.9736 285.751C47.6052 285.751 47.2368 285.763 47.2368 286.287C47.2368 286.666 47.3819 286.956 47.8173 286.945C48.1857 286.945 48.5429 286.867 48.5429 286.376C48.5429 285.986 48.4201 285.718 47.9624 285.763L47.9736 285.751ZM20.7791 84.0739C21.0247 83.9289 21.4155 83.8394 21.382 83.4269C21.3597 83.103 21.248 82.679 20.835 82.724C20.5224 82.7575 20.1093 82.88 20.0312 83.3039C19.9865 83.5384 20.5224 84.0849 20.7791 84.0739ZM63.4797 223.42C63.8482 223.376 64.1271 223.186 64.1271 222.751C64.1271 222.416 63.9377 222.148 63.5912 222.17C63.2117 222.193 62.8432 222.349 62.8547 222.84C62.8547 223.219 63.0777 223.409 63.4797 223.42ZM54.9845 201.461C54.705 201.595 54.3255 201.717 54.348 202.097C54.359 202.443 54.6605 202.733 55.018 202.71C55.3525 202.699 55.6765 202.465 55.6875 202.086C55.699 201.684 55.375 201.539 54.9845 201.449V201.461ZM35.2025 229.379C35.6936 229.379 36.1625 229.033 36.129 228.732C36.1067 228.386 35.8611 228.319 35.582 228.352C35.2248 228.386 34.7671 228.319 34.7448 228.877C34.7336 229.212 34.9345 229.379 35.2025 229.39V229.379ZM61.3143 280.987C61.2808 280.685 61.3028 280.362 60.8453 280.395C60.4658 280.429 60.1308 280.496 60.1418 280.998C60.1418 281.399 60.3653 281.556 60.7448 281.556C61.1243 281.556 61.3588 281.411 61.3028 280.987H61.3143ZM44.4459 185.437C44.3119 185.18 44.3343 184.756 43.9212 184.768C43.5863 184.768 43.2291 184.957 43.2291 185.348C43.2291 185.638 43.2961 186.051 43.7091 186.028C44.0105 186.006 44.3566 185.861 44.4459 185.437ZM69.162 221.155C69.0055 221.166 68.8495 221.155 68.693 221.166C68.425 221.188 68.1685 221.233 68.124 221.568C68.1015 221.746 68.0905 221.947 68.269 222.048C68.5255 222.193 68.76 222.081 68.972 221.914C69.1395 221.78 69.2625 221.579 69.5079 221.568C69.6754 221.568 69.9324 221.646 69.9324 221.389C69.9324 221.11 69.6529 221.177 69.4744 221.166C69.374 221.166 69.2735 221.166 69.173 221.166L69.162 221.155ZM65.7346 223.42C65.7906 223.699 65.8351 224.067 66.2036 224.034C66.5496 224 66.918 223.777 66.9515 223.376C66.985 223.03 66.6951 222.851 66.3601 222.851C66.0141 222.851 65.7346 222.985 65.7236 223.42H65.7346ZM24.8762 70.5389C24.7087 70.2819 24.5636 69.9139 24.2175 69.9584C23.9384 69.9919 23.6593 70.2264 23.6817 70.5834C23.704 70.8624 23.8715 71.0969 24.1952 71.0299C24.4743 70.9739 24.798 70.9404 24.8762 70.5389ZM41.856 229.156C42.1239 229.055 42.5816 229.111 42.6039 228.676C42.6151 228.364 42.2801 228.252 41.9788 228.252C41.6885 228.252 41.3424 228.285 41.3201 228.687C41.3089 229 41.521 229.145 41.856 229.156ZM56.2344 223.811C55.922 223.844 55.71 224.012 55.721 224.346C55.721 224.648 55.8775 224.915 56.2009 224.915C56.5474 224.915 56.7259 224.648 56.7144 224.313C56.7144 224.023 56.5474 223.833 56.2344 223.822V223.811ZM97.1824 212.552C96.9034 212.485 96.736 212.541 96.725 212.809C96.725 213.132 96.8254 213.378 97.1824 213.355C97.4839 213.333 97.9194 213.311 97.9194 212.92C97.9194 212.396 97.3834 212.686 97.1714 212.552H97.1824ZM71.1489 221.903C70.8699 221.903 70.6244 221.97 70.6244 222.315C70.6244 222.617 70.7694 222.829 71.0819 222.806C71.3614 222.784 71.7299 222.773 71.7184 222.36C71.7184 222.025 71.4619 221.903 71.1489 221.903ZM46.1428 270.197C46.0869 269.94 46.02 269.683 45.6739 269.717C45.3948 269.75 45.0934 269.817 45.1268 270.185C45.1492 270.476 45.2831 270.743 45.6292 270.732C45.9418 270.732 46.1316 270.542 46.1428 270.197ZM54.27 206.102C54.571 206.046 54.75 205.879 54.705 205.567C54.6605 205.265 54.504 205.042 54.158 205.076C53.879 205.109 53.667 205.276 53.7115 205.589C53.7565 205.89 53.957 206.069 54.2585 206.102H54.27ZM32.4786 258.815C32.5121 258.993 32.4339 259.317 32.7465 259.294C33.0702 259.272 33.4275 259.138 33.4833 258.737C33.5279 258.424 33.2712 258.358 33.0144 258.346C32.713 258.346 32.4562 258.413 32.4786 258.815ZM70.4234 284.468C70.6469 284.457 70.9149 284.435 70.9034 284.111C70.8924 283.821 70.7024 283.642 70.4009 283.642C70.1334 283.642 69.9209 283.732 69.9099 284.033C69.8989 284.368 70.1109 284.468 70.4234 284.479V284.468ZM25.6576 103.802C25.5125 103.969 25.1106 103.891 25.0883 104.17C25.0659 104.416 25.3116 104.661 25.5795 104.672C25.8586 104.695 26.0818 104.483 26.1265 104.215C26.16 103.969 25.9479 103.847 25.6576 103.791V103.802ZM61.3253 294.6C61.1133 294.633 60.8003 294.578 60.7558 294.879C60.7223 295.158 60.9793 295.281 61.2248 295.314C61.4592 295.348 61.6822 295.314 61.7157 295.024C61.7492 294.756 61.5932 294.622 61.3143 294.6H61.3253ZM87.0238 202.755C87.2583 202.621 87.7268 202.811 87.8053 202.365C87.8388 202.175 87.5818 202.052 87.3698 202.063C87.0238 202.074 86.7558 202.253 86.6778 202.588C86.6328 202.766 86.8453 202.744 87.0123 202.755H87.0238ZM84.9139 274.86C85.1929 274.805 85.3829 274.604 85.3939 274.347C85.4049 274.09 85.1484 274.079 84.9474 274.079C84.7129 274.079 84.5009 274.157 84.5009 274.436C84.5009 274.682 84.6459 274.838 84.9139 274.86ZM56.4354 205.913C56.4134 205.7 56.3014 205.544 56.1004 205.567C55.8549 205.6 55.576 205.7 55.5535 206.013C55.5535 206.214 55.7325 206.314 55.922 206.314C56.1899 206.314 56.3574 206.158 56.4244 205.913H56.4354ZM41.8336 265.041C42.0569 264.985 42.202 264.84 42.1797 264.584C42.1685 264.405 42.0569 264.282 41.8671 264.294C41.5769 264.305 41.521 264.517 41.521 264.751C41.521 264.93 41.5992 265.052 41.8225 265.041H41.8336ZM50.6191 275.139C50.4296 275.139 50.2512 275.173 50.2512 275.418C50.2512 275.619 50.3627 275.764 50.5746 275.764C50.7866 275.764 50.9656 275.664 50.9766 275.43C50.9766 275.206 50.7981 275.151 50.6081 275.128L50.6191 275.139ZM26.4949 154.595C26.2828 154.629 26.1265 154.751 26.1042 154.974C26.0818 155.142 26.227 155.22 26.3721 155.22C26.5842 155.22 26.7851 155.175 26.7963 154.919C26.7963 154.74 26.6847 154.64 26.4949 154.595ZM67.1635 220.251C66.929 220.318 66.8956 220.508 66.9181 220.72C66.929 220.865 66.996 220.999 67.175 220.954C67.376 220.909 67.454 220.753 67.443 220.552C67.443 220.374 67.3645 220.251 67.1525 220.251H67.1635ZM31.7864 252.421C31.6078 252.477 31.4738 252.588 31.4627 252.789C31.4627 252.979 31.5855 253.091 31.7641 253.068C31.965 253.035 32.0543 252.879 32.0543 252.678C32.0543 252.521 31.9539 252.421 31.7752 252.421H31.7864ZM77.9141 204.384C77.8471 204.195 77.7132 204.094 77.5122 204.128C77.3447 204.15 77.2107 204.25 77.2332 204.44C77.2667 204.64 77.4342 204.663 77.6017 204.652C77.7691 204.652 77.9141 204.585 77.9251 204.384H77.9141ZM36.8212 222.182C36.7989 222.037 36.7207 221.914 36.5309 221.903C36.3523 221.903 36.2072 221.97 36.2072 222.17C36.2072 222.36 36.3523 222.438 36.5309 222.449C36.6872 222.449 36.7989 222.394 36.8212 222.193V222.182ZM32.8581 143.336C32.8246 143.191 32.713 143.113 32.5679 143.113C32.3669 143.113 32.2999 143.258 32.3223 143.426C32.3446 143.593 32.4786 143.638 32.6237 143.615C32.7688 143.593 32.8693 143.504 32.8693 143.336H32.8581ZM80.0351 281.768C79.8681 281.779 79.8011 281.89 79.7896 282.036C79.7786 282.181 79.8121 282.326 79.9906 282.326C80.1691 282.326 80.2921 282.225 80.2921 282.036C80.2921 281.879 80.1806 281.801 80.0351 281.757V281.768ZM53.332 289.244C53.455 289.221 53.522 289.132 53.522 289.009C53.522 288.842 53.477 288.686 53.276 288.686C53.1311 288.686 53.0976 288.82 53.1091 288.942C53.1091 289.087 53.1421 289.21 53.332 289.244Z" fill="url(#paint0_linear_29332_9584)"/>
<path d="M69.6201 2.68498C69.5976 3.01973 69.4411 3.2429 69.1736 3.36564C68.8831 3.49954 68.8161 3.22058 68.6936 3.04204C68.4142 2.66266 68.1127 2.28327 67.8562 1.89273C67.6552 1.59145 67.6107 1.26786 68.0347 1.1228C68.3922 1.00005 68.8161 0.665304 69.0506 1.33481C69.2071 1.80347 69.4301 2.23864 69.6201 2.67382V2.68498Z" fill="url(#paint1_linear_29332_9584)"/>
<path d="M36.4198 54.0022C36.3305 54.2812 35.9845 54.3147 35.7723 54.4932C35.5714 54.6602 35.3369 54.6157 35.136 54.4147C34.7341 54.0022 34.723 53.3997 34.4662 52.9197C34.3657 52.7188 34.8234 52.3508 35.0579 52.4063C35.2923 52.4623 36.3975 53.7232 36.4198 53.9907V54.0022Z" fill="url(#paint2_linear_29332_9584)"/>
<path d="M31.5186 128.228C31.8757 128.228 32.3335 128.842 32.233 129.154C32.166 129.377 32.032 129.556 32.0209 129.824C32.0209 130.058 31.8199 129.947 31.7195 129.857C31.4962 129.656 31.2841 129.444 31.0832 129.232C30.9157 129.054 30.7371 128.853 30.8487 128.596C30.9715 128.306 31.3399 128.384 31.5074 128.228H31.5186Z" fill="url(#paint3_linear_29332_9584)"/>
<path d="M31.7196 71.9446C31.5857 72.3355 31.3289 72.5695 30.9717 72.5585C30.6144 72.5475 30.4135 72.246 30.447 71.8891C30.4805 71.4871 30.8266 71.2751 31.1391 71.2866C31.4628 71.2866 31.5968 71.6661 31.7196 71.9446Z" fill="url(#paint4_linear_29332_9584)"/>
<path d="M40.0365 48.2112C39.9584 48.5794 39.7351 48.8695 39.3778 48.8918C39.0317 48.9141 38.7639 48.5459 38.7527 48.2781C38.7415 47.8876 39.1769 47.709 39.4895 47.6309C39.9025 47.5305 39.8802 47.9768 40.0253 48.2223L40.0365 48.2112Z" fill="url(#paint5_linear_29332_9584)"/>
<path d="M44.9373 37.968C45.2945 38.0126 45.4955 38.258 45.529 38.5928C45.5625 38.9164 45.2722 39.028 45.0154 39.0503C44.6693 39.0726 44.4461 38.8495 44.4126 38.5258C44.3679 38.1799 44.6247 38.0461 44.9373 37.9791V37.968Z" fill="url(#paint6_linear_29332_9584)"/>
<path d="M60.0415 19.7792C59.941 20.1028 59.6845 20.2255 59.4055 20.2255C59.1375 20.2255 58.9366 20.0024 58.9591 19.7569C58.9926 19.3775 59.383 19.3775 59.651 19.3329C59.8965 19.2994 59.9745 19.5672 60.0415 19.7792Z" fill="url(#paint7_linear_29332_9584)"/>
<path d="M37.413 53.8793C37.6698 53.9018 37.9265 53.9243 37.9153 54.1583C37.893 54.4598 37.614 54.6158 37.3349 54.6383C37.0446 54.6608 36.8771 54.4153 36.8771 54.1918C36.8883 53.8348 37.2567 53.9688 37.413 53.8683V53.8793Z" fill="url(#paint8_linear_29332_9584)"/>
<path d="M34.5439 60.7976C34.4881 60.9761 34.3988 61.1436 34.1979 61.1551C33.9969 61.1551 33.9299 60.9986 33.9299 60.8311C33.9299 60.6191 34.0416 60.4966 34.2648 60.4966C34.4546 60.4966 34.5551 60.6081 34.5439 60.8091V60.7976Z" fill="url(#paint9_linear_29332_9584)"/>
<path d="M51.6018 30.6476C51.8253 30.6811 51.9478 30.815 51.9703 31.0382C51.9813 31.1833 51.9368 31.3395 51.7583 31.3283C51.5238 31.3283 51.4458 31.1163 51.3898 30.9266C51.3453 30.7592 51.4343 30.67 51.6018 30.6476Z" fill="url(#paint10_linear_29332_9584)"/>
<path d="M54.2701 10.0939C54.0691 10.0493 53.9686 9.93769 53.9686 9.75915C53.9686 9.60296 54.0691 9.50251 54.2366 9.51366C54.4151 9.53601 54.5156 9.6699 54.5156 9.83725C54.5156 10.0046 54.4041 10.0716 54.2701 10.0939Z" fill="url(#paint11_linear_29332_9584)"/>
<path d="M50.6309 189.555C50.6754 189.365 50.7869 189.242 50.9769 189.209C51.0884 189.198 51.1779 189.264 51.1554 189.376C51.1219 189.555 51.0329 189.722 50.8429 189.767C50.6979 189.8 50.6419 189.689 50.6194 189.543L50.6309 189.555Z" fill="url(#paint12_linear_29332_9584)"/>
<path d="M17.1067 102.452C17.1067 102.641 17.0062 102.686 16.8834 102.664C16.7271 102.63 16.5932 102.552 16.582 102.363C16.582 102.217 16.6825 102.162 16.8164 102.173C16.9951 102.195 17.0732 102.329 17.1067 102.452Z" fill="url(#paint13_linear_29332_9584)"/>
<path d="M44.3008 19.3777C44.2674 19.5116 44.1892 19.6232 44.0329 19.6343C43.8989 19.6343 43.7873 19.5785 43.7985 19.4335C43.8096 19.2438 43.9659 19.1768 44.1334 19.1768C44.245 19.1768 44.312 19.2438 44.312 19.3777H44.3008Z" fill="url(#paint14_linear_29332_9584)"/>
<path d="M56.815 229.87C56.458 229.859 56.2126 229.859 55.9781 229.826C55.8326 229.804 55.7321 229.703 55.7436 229.536C55.7546 229.357 55.8886 229.301 56.0336 229.346C56.3685 229.446 56.469 229.234 56.592 228.989C56.7815 228.621 57.161 228.598 57.5295 228.632C57.8535 228.665 57.909 228.944 57.9425 229.201C57.9875 229.558 57.7975 229.77 57.4625 229.826C57.217 229.871 56.949 229.87 56.8265 229.882L56.815 229.87Z" fill="url(#paint15_linear_29332_9584)"/>
</g>
<defs>
<linearGradient id="paint0_linear_29332_9584" x1="0.637817" y1="1.69758" x2="115.611" y2="1.69758" gradientUnits="userSpaceOnUse">
<stop stop-color="#FE9311"/>
<stop offset="1" stop-color="#FFDB00"/>
</linearGradient>
<linearGradient id="paint1_linear_29332_9584" x1="67.7083" y1="0.929993" x2="69.6201" y2="0.929993" gradientUnits="userSpaceOnUse">
<stop stop-color="#FE9311"/>
<stop offset="1" stop-color="#FFDB00"/>
</linearGradient>
<linearGradient id="paint2_linear_29332_9584" x1="34.452" y1="52.4006" x2="36.4198" y2="52.4006" gradientUnits="userSpaceOnUse">
<stop stop-color="#FE9311"/>
<stop offset="1" stop-color="#FFDB00"/>
</linearGradient>
<linearGradient id="paint3_linear_29332_9584" x1="30.814" y1="128.228" x2="32.2471" y2="128.228" gradientUnits="userSpaceOnUse">
<stop stop-color="#FE9311"/>
<stop offset="1" stop-color="#FFDB00"/>
</linearGradient>
<linearGradient id="paint4_linear_29332_9584" x1="30.4434" y1="71.2861" x2="31.7196" y2="71.2861" gradientUnits="userSpaceOnUse">
<stop stop-color="#FE9311"/>
<stop offset="1" stop-color="#FFDB00"/>
</linearGradient>
<linearGradient id="paint5_linear_29332_9584" x1="38.7524" y1="47.6165" x2="40.0365" y2="47.6165" gradientUnits="userSpaceOnUse">
<stop stop-color="#FE9311"/>
<stop offset="1" stop-color="#FFDB00"/>
</linearGradient>
<linearGradient id="paint6_linear_29332_9584" x1="44.4075" y1="37.968" x2="45.5316" y2="37.968" gradientUnits="userSpaceOnUse">
<stop stop-color="#FE9311"/>
<stop offset="1" stop-color="#FFDB00"/>
</linearGradient>
<linearGradient id="paint7_linear_29332_9584" x1="58.9573" y1="19.33" x2="60.0415" y2="19.33" gradientUnits="userSpaceOnUse">
<stop stop-color="#FE9311"/>
<stop offset="1" stop-color="#FFDB00"/>
</linearGradient>
<linearGradient id="paint8_linear_29332_9584" x1="36.8771" y1="53.8683" x2="37.9157" y2="53.8683" gradientUnits="userSpaceOnUse">
<stop stop-color="#FE9311"/>
<stop offset="1" stop-color="#FFDB00"/>
</linearGradient>
<linearGradient id="paint9_linear_29332_9584" x1="33.9299" y1="60.4966" x2="34.5448" y2="60.4966" gradientUnits="userSpaceOnUse">
<stop stop-color="#FE9311"/>
<stop offset="1" stop-color="#FFDB00"/>
</linearGradient>
<linearGradient id="paint10_linear_29332_9584" x1="51.3784" y1="30.6476" x2="51.9719" y2="30.6476" gradientUnits="userSpaceOnUse">
<stop stop-color="#FE9311"/>
<stop offset="1" stop-color="#FFDB00"/>
</linearGradient>
<linearGradient id="paint11_linear_29332_9584" x1="53.9686" y1="9.51282" x2="54.5156" y2="9.51282" gradientUnits="userSpaceOnUse">
<stop stop-color="#FE9311"/>
<stop offset="1" stop-color="#FFDB00"/>
</linearGradient>
<linearGradient id="paint12_linear_29332_9584" x1="50.6194" y1="189.208" x2="51.1589" y2="189.208" gradientUnits="userSpaceOnUse">
<stop stop-color="#FE9311"/>
<stop offset="1" stop-color="#FFDB00"/>
</linearGradient>
<linearGradient id="paint13_linear_29332_9584" x1="16.582" y1="102.172" x2="17.1067" y2="102.172" gradientUnits="userSpaceOnUse">
<stop stop-color="#FE9311"/>
<stop offset="1" stop-color="#FFDB00"/>
</linearGradient>
<linearGradient id="paint14_linear_29332_9584" x1="43.7977" y1="19.1768" x2="44.312" y2="19.1768" gradientUnits="userSpaceOnUse">
<stop stop-color="#FE9311"/>
<stop offset="1" stop-color="#FFDB00"/>
</linearGradient>
<linearGradient id="paint15_linear_29332_9584" x1="55.7427" y1="228.621" x2="57.949" y2="228.621" gradientUnits="userSpaceOnUse">
<stop stop-color="#FE9311"/>
<stop offset="1" stop-color="#FFDB00"/>
</linearGradient>
<clipPath id="clip0_29332_9584">
<rect width="115.496" height="317.988" fill="white" transform="translate(0.162598 0.432861)"/>
</clipPath>
</defs>
</svg>
